<?xml version="1.0" encoding="UTF-8"?>
<!--Generator: Apple Native CoreSVG 175-->
<!DOCTYPE svg
PUBLIC "-//W3C//DTD SVG 1.1//EN"
       "http://www.w3.org/Graphics/SVG/1.1/DTD/svg11.dtd">
<svg version="1.1" xmlns="http://www.w3.org/2000/svg" xmlns:xlink="http://www.w3.org/1999/xlink" width="3300" height="2200">
 <!--glyph: "uni100E39.medium", point size: 100.0, font version: "17.0d11e1", template writer version: "65.1"-->
 <style>.multicolor-0:systemOrangeColor {fill:#FF9500;opacity:1.0}

.hierarchical-0:secondary {fill:#4D4D4D}
.hierarchical-1:primary {fill:#212121}

.SFSymbolsPreviewFF9500 {fill:#FF9500;opacity:1.0}
</style>
 <g id="Notes">
  <rect height="2200" id="artboard" style="fill:white;opacity:1" width="3300" x="0" y="0"/>
  <line style="fill:none;stroke:black;opacity:1;stroke-width:0.5;" x1="263" x2="3036" y1="292" y2="292"/>
  <text style="stroke:none;fill:black;font-family:sans-serif;font-size:13;font-weight:bold;" transform="matrix(1 0 0 1 263 322)">Weight/Scale Variations</text>
  <text style="stroke:none;fill:black;font-family:sans-serif;font-size:13;text-anchor:middle;" transform="matrix(1 0 0 1 559.711 322)">Ultralight</text>
  <text style="stroke:none;fill:black;font-family:sans-serif;font-size:13;text-anchor:middle;" transform="matrix(1 0 0 1 856.422 322)">Thin</text>
  <text style="stroke:none;fill:black;font-family:sans-serif;font-size:13;text-anchor:middle;" transform="matrix(1 0 0 1 1153.13 322)">Light</text>
  <text style="stroke:none;fill:black;font-family:sans-serif;font-size:13;text-anchor:middle;" transform="matrix(1 0 0 1 1449.84 322)">Regular</text>
  <text style="stroke:none;fill:black;font-family:sans-serif;font-size:13;text-anchor:middle;" transform="matrix(1 0 0 1 1746.56 322)">Medium</text>
  <text style="stroke:none;fill:black;font-family:sans-serif;font-size:13;text-anchor:middle;" transform="matrix(1 0 0 1 2043.27 322)">Semibold</text>
  <text style="stroke:none;fill:black;font-family:sans-serif;font-size:13;text-anchor:middle;" transform="matrix(1 0 0 1 2339.98 322)">Bold</text>
  <text style="stroke:none;fill:black;font-family:sans-serif;font-size:13;text-anchor:middle;" transform="matrix(1 0 0 1 2636.69 322)">Heavy</text>
  <text style="stroke:none;fill:black;font-family:sans-serif;font-size:13;text-anchor:middle;" transform="matrix(1 0 0 1 2933.4 322)">Black</text>
  <line style="fill:none;stroke:black;opacity:1;stroke-width:0.5;" x1="263" x2="3036" y1="1903" y2="1903"/>
  <g transform="matrix(1 0 0 1 263 1933)">
   <path d="M9.24805 0.830078Q10.8691 0.830078 12.2949 0.214844Q13.7207-0.400391 14.8096-1.49414Q15.8984-2.58789 16.5186-4.01367Q17.1387-5.43945 17.1387-7.05078Q17.1387-8.66211 16.5186-10.0879Q15.8984-11.5137 14.8047-12.6074Q13.7109-13.7012 12.2852-14.3164Q10.8594-14.9316 9.23828-14.9316Q7.62695-14.9316 6.20117-14.3164Q4.77539-13.7012 3.69141-12.6074Q2.60742-11.5137 1.9873-10.0879Q1.36719-8.66211 1.36719-7.05078Q1.36719-5.43945 1.9873-4.01367Q2.60742-2.58789 3.69629-1.49414Q4.78516-0.400391 6.21094 0.214844Q7.63672 0.830078 9.24805 0.830078ZM9.24805-0.654297Q7.91992-0.654297 6.7627-1.14746Q5.60547-1.64062 4.73145-2.51953Q3.85742-3.39844 3.36426-4.56055Q2.87109-5.72266 2.87109-7.05078Q2.87109-8.37891 3.35938-9.54102Q3.84766-10.7031 4.72168-11.582Q5.5957-12.4609 6.75293-12.9541Q7.91016-13.4473 9.23828-13.4473Q10.5762-13.4473 11.7334-12.9541Q12.8906-12.4609 13.7695-11.582Q14.6484-10.7031 15.1465-9.54102Q15.6445-8.37891 15.6445-7.05078Q15.6445-5.72266 15.1514-4.56055Q14.6582-3.39844 13.7842-2.51953Q12.9102-1.64062 11.748-1.14746Q10.5859-0.654297 9.24805-0.654297ZM5.6543-7.05078Q5.6543-6.72852 5.85938-6.52832Q6.06445-6.32812 6.40625-6.32812L8.51562-6.32812L8.51562-4.20898Q8.51562-3.88672 8.71094-3.67676Q8.90625-3.4668 9.23828-3.4668Q9.56055-3.4668 9.77051-3.67676Q9.98047-3.88672 9.98047-4.20898L9.98047-6.32812L12.0898-6.32812Q12.4219-6.32812 12.627-6.52832Q12.832-6.72852 12.832-7.05078Q12.832-7.38281 12.627-7.58789Q12.4219-7.79297 12.0898-7.79297L9.98047-7.79297L9.98047-9.90234Q9.98047-10.2344 9.77051-10.4443Q9.56055-10.6543 9.23828-10.6543Q8.90625-10.6543 8.71094-10.4443Q8.51562-10.2344 8.51562-9.90234L8.51562-7.79297L6.40625-7.79297Q6.06445-7.79297 5.85938-7.58789Q5.6543-7.38281 5.6543-7.05078Z"/>
  </g>
  <g transform="matrix(1 0 0 1 281.867 1933)">
   <path d="M11.709 2.91016Q13.75 2.91016 15.5518 2.12891Q17.3535 1.34766 18.7305-0.0292969Q20.1074-1.40625 20.8887-3.20801Q21.6699-5.00977 21.6699-7.05078Q21.6699-9.0918 20.8887-10.8936Q20.1074-12.6953 18.7305-14.0723Q17.3535-15.4492 15.5469-16.2305Q13.7402-17.0117 11.6992-17.0117Q9.6582-17.0117 7.85645-16.2305Q6.05469-15.4492 4.68262-14.0723Q3.31055-12.6953 2.5293-10.8936Q1.74805-9.0918 1.74805-7.05078Q1.74805-5.00977 2.5293-3.20801Q3.31055-1.40625 4.6875-0.0292969Q6.06445 1.34766 7.86621 2.12891Q9.66797 2.91016 11.709 2.91016ZM11.709 1.25Q9.98047 1.25 8.47656 0.605469Q6.97266-0.0390625 5.83496-1.17676Q4.69727-2.31445 4.05762-3.81836Q3.41797-5.32227 3.41797-7.05078Q3.41797-8.7793 4.05762-10.2832Q4.69727-11.7871 5.83008-12.9297Q6.96289-14.0723 8.4668-14.7119Q9.9707-15.3516 11.6992-15.3516Q13.4277-15.3516 14.9316-14.7119Q16.4355-14.0723 17.5781-12.9297Q18.7207-11.7871 19.3652-10.2832Q20.0098-8.7793 20.0098-7.05078Q20.0098-5.32227 19.3701-3.81836Q18.7305-2.31445 17.5928-1.17676Q16.4551-0.0390625 14.9463 0.605469Q13.4375 1.25 11.709 1.25ZM7.17773-7.05078Q7.17773-6.69922 7.41211-6.47461Q7.64648-6.25 8.01758-6.25L10.8887-6.25L10.8887-3.36914Q10.8887-2.99805 11.1133-2.76855Q11.3379-2.53906 11.6895-2.53906Q12.0605-2.53906 12.29-2.76855Q12.5195-2.99805 12.5195-3.36914L12.5195-6.25L15.4004-6.25Q15.7715-6.25 16.001-6.47461Q16.2305-6.69922 16.2305-7.05078Q16.2305-7.42188 16.001-7.65137Q15.7715-7.88086 15.4004-7.88086L12.5195-7.88086L12.5195-10.752Q12.5195-11.1328 12.29-11.3623Q12.0605-11.5918 11.6895-11.5918Q11.3379-11.5918 11.1133-11.3574Q10.8887-11.123 10.8887-10.752L10.8887-7.88086L8.01758-7.88086Q7.63672-7.88086 7.40723-7.65137Q7.17773-7.42188 7.17773-7.05078Z"/>
  </g>
  <g transform="matrix(1 0 0 1 305.646 1933)">
   <path d="M14.9707 5.66406Q17.0605 5.66406 18.96 5.01465Q20.8594 4.36523 22.4512 3.19336Q24.043 2.02148 25.2197 0.429688Q26.3965-1.16211 27.0459-3.06641Q27.6953-4.9707 27.6953-7.05078Q27.6953-9.14062 27.0459-11.04Q26.3965-12.9395 25.2197-14.5312Q24.043-16.123 22.4512-17.2998Q20.8594-18.4766 18.9551-19.126Q17.0508-19.7754 14.9609-19.7754Q12.8711-19.7754 10.9717-19.126Q9.07227-18.4766 7.48535-17.2998Q5.89844-16.123 4.72168-14.5312Q3.54492-12.9395 2.90039-11.04Q2.25586-9.14062 2.25586-7.05078Q2.25586-4.9707 2.90527-3.06641Q3.55469-1.16211 4.72656 0.429688Q5.89844 2.02148 7.49023 3.19336Q9.08203 4.36523 10.9814 5.01465Q12.8809 5.66406 14.9707 5.66406ZM14.9707 3.84766Q13.1641 3.84766 11.5283 3.2959Q9.89258 2.74414 8.53516 1.74805Q7.17773 0.751953 6.17676-0.610352Q5.17578-1.97266 4.62891-3.6084Q4.08203-5.24414 4.08203-7.05078Q4.08203-8.86719 4.62891-10.5029Q5.17578-12.1387 6.17188-13.501Q7.16797-14.8633 8.52539-15.8594Q9.88281-16.8555 11.5186-17.4023Q13.1543-17.9492 14.9609-17.9492Q16.7773-17.9492 18.4131-17.4023Q20.0488-16.8555 21.4111-15.8594Q22.7734-14.8633 23.7695-13.501Q24.7656-12.1387 25.3174-10.5029Q25.8691-8.86719 25.8691-7.05078Q25.8789-5.24414 25.332-3.6084Q24.7852-1.97266 23.7842-0.610352Q22.7832 0.751953 21.4209 1.74805Q20.0586 2.74414 18.4229 3.2959Q16.7871 3.84766 14.9707 3.84766ZM9.19922-7.05078Q9.19922-6.66992 9.45801-6.4209Q9.7168-6.17188 10.1172-6.17188L14.0625-6.17188L14.0625-2.2168Q14.0625-1.81641 14.3115-1.55762Q14.5605-1.29883 14.9512-1.29883Q15.3516-1.29883 15.6104-1.55273Q15.8691-1.80664 15.8691-2.2168L15.8691-6.17188L19.8242-6.17188Q20.2246-6.17188 20.4785-6.4209Q20.7324-6.66992 20.7324-7.05078Q20.7324-7.46094 20.4785-7.71484Q20.2246-7.96875 19.8242-7.96875L15.8691-7.96875L15.8691-11.9141Q15.8691-12.3242 15.6104-12.583Q15.3516-12.8418 14.9512-12.8418Q14.5605-12.8418 14.3115-12.583Q14.0625-12.3242 14.0625-11.9141L14.0625-7.96875L10.1172-7.96875Q9.70703-7.96875 9.45312-7.71484Q9.19922-7.46094 9.19922-7.05078Z"/>
  </g>
  <text style="stroke:none;fill:black;font-family:sans-serif;font-size:13;font-weight:bold;" transform="matrix(1 0 0 1 263 1953)">Design Variations</text>
  <text style="stroke:none;fill:black;font-family:sans-serif;font-size:13;" transform="matrix(1 0 0 1 263 1971)">Symbols are supported in up to nine weights and three scales.</text>
  <text style="stroke:none;fill:black;font-family:sans-serif;font-size:13;" transform="matrix(1 0 0 1 263 1989)">For optimal layout with text and other symbols, vertically align</text>
  <text style="stroke:none;fill:black;font-family:sans-serif;font-size:13;" transform="matrix(1 0 0 1 263 2007)">symbols with the adjacent text.</text>
  <line style="fill:none;stroke:#00AEEF;stroke-width:0.5;opacity:1.0;" x1="776" x2="776" y1="1919" y2="1933"/>
  <g transform="matrix(1 0 0 1 776 1933)">
   <path d="M3.31055 0.15625Q3.70117 0.15625 3.91602-0.00976562Q4.13086-0.175781 4.26758-0.585938L5.52734-4.0332L11.2891-4.0332L12.5488-0.585938Q12.6855-0.175781 12.9004-0.00976562Q13.1152 0.15625 13.4961 0.15625Q13.8867 0.15625 14.1162-0.0585938Q14.3457-0.273438 14.3457-0.644531Q14.3457-0.869141 14.2383-1.17188L9.6582-13.3691Q9.48242-13.8184 9.17969-14.043Q8.87695-14.2676 8.4082-14.2676Q7.5-14.2676 7.17773-13.3789L2.59766-1.16211Q2.49023-0.859375 2.49023-0.634766Q2.49023-0.263672 2.70996-0.0537109Q2.92969 0.15625 3.31055 0.15625ZM6.00586-5.51758L8.37891-12.0898L8.42773-12.0898L10.8008-5.51758Z"/>
  </g>
  <line style="fill:none;stroke:#00AEEF;stroke-width:0.5;opacity:1.0;" x1="793.197" x2="793.197" y1="1919" y2="1933"/>
  <text style="stroke:none;fill:black;font-family:sans-serif;font-size:13;font-weight:bold;" transform="matrix(1 0 0 1 776 1953)">Margins</text>
  <text style="stroke:none;fill:black;font-family:sans-serif;font-size:13;" transform="matrix(1 0 0 1 776 1971)">Leading and trailing margins on the left and right side of each symbol</text>
  <text style="stroke:none;fill:black;font-family:sans-serif;font-size:13;" transform="matrix(1 0 0 1 776 1989)">can be adjusted by modifying the x-location of the margin guidelines.</text>
  <text style="stroke:none;fill:black;font-family:sans-serif;font-size:13;" transform="matrix(1 0 0 1 776 2007)">Modifications are automatically applied proportionally to all</text>
  <text style="stroke:none;fill:black;font-family:sans-serif;font-size:13;" transform="matrix(1 0 0 1 776 2025)">scales and weights.</text>
  <g transform="matrix(1 0 0 1 1289 1933)">
   <path d="M2.8418 1.86523L4.54102 3.57422Q5.18555 4.22852 5.90332 4.17969Q6.62109 4.13086 7.31445 3.35938L18.0078-8.42773L17.041-9.4043L6.42578 2.27539Q6.16211 2.57812 5.89355 2.61719Q5.625 2.65625 5.27344 2.30469L4.10156 1.14258Q3.75 0.791016 3.79395 0.522461Q3.83789 0.253906 4.14062-0.0195312L15.6152-10.8203L14.6387-11.7871L3.04688-0.898438Q2.30469-0.214844 2.25098 0.498047Q2.19727 1.21094 2.8418 1.86523ZM9.25781-16.3281Q8.94531-16.0254 8.90625-15.6348Q8.86719-15.2441 9.04297-14.9512Q9.21875-14.6777 9.55566-14.541Q9.89258-14.4043 10.3809-14.5215Q11.4746-14.7754 12.5977-14.7314Q13.7207-14.6875 14.7949-13.9844L14.209-12.5293Q13.9551-11.9043 14.0674-11.4404Q14.1797-10.9766 14.5801-10.5664L16.875-8.25195Q17.2363-7.88086 17.5781-7.82227Q17.9199-7.76367 18.3398-7.8418L19.4043-8.03711L20.0684-7.36328L20.0293-6.80664Q20-6.43555 20.1221-6.12305Q20.2441-5.81055 20.6055-5.44922L21.3672-4.70703Q21.7285-4.3457 22.1533-4.33105Q22.5781-4.31641 22.9297-4.66797L25.8398-7.58789Q26.1914-7.93945 26.1816-8.35449Q26.1719-8.76953 25.8105-9.13086L25.0391-9.89258Q24.6875-10.2539 24.3799-10.3857Q24.0723-10.5176 23.7109-10.4883L23.1348-10.4395L22.4902-11.0742L22.7344-12.1973Q22.832-12.6172 22.6953-12.9834Q22.5586-13.3496 22.1191-13.7891L19.9219-15.9766Q18.6719-17.2168 17.2607-17.8369Q15.8496-18.457 14.4189-18.4814Q12.9883-18.5059 11.665-17.959Q10.3418-17.4121 9.25781-16.3281ZM10.752-15.957Q11.6602-16.6211 12.7002-16.9043Q13.7402-17.1875 14.8047-17.085Q15.8691-16.9824 16.8701-16.5137Q17.8711-16.0449 18.7012-15.2051L21.1328-12.793Q21.3086-12.6172 21.3525-12.4512Q21.3965-12.2852 21.3379-12.0312L21.0156-10.5469L22.5195-9.0625L23.5059-9.12109Q23.6914-9.13086 23.7891-9.09668Q23.8867-9.0625 24.0332-8.91602L24.6094-8.33984L22.168-5.89844L21.5918-6.47461Q21.4453-6.62109 21.4062-6.71875Q21.3672-6.81641 21.377-7.01172L21.4453-7.98828L19.9512-9.47266L18.4277-9.21875Q18.1836-9.16992 18.042-9.2041Q17.9004-9.23828 17.7148-9.41406L15.7129-11.416Q15.5176-11.5918 15.4932-11.7529Q15.4688-11.9141 15.5859-12.1875L16.4648-14.2773Q15.293-15.3711 13.8281-15.791Q12.3633-16.2109 10.8398-15.7617Q10.7227-15.7324 10.6885-15.8057Q10.6543-15.8789 10.752-15.957Z"/>
  </g>
  <text style="stroke:none;fill:black;font-family:sans-serif;font-size:13;font-weight:bold;" transform="matrix(1 0 0 1 1289 1953)">Exporting</text>
  <text style="stroke:none;fill:black;font-family:sans-serif;font-size:13;" transform="matrix(1 0 0 1 1289 1971)">Symbols should be outlined when exporting to ensure the</text>
  <text style="stroke:none;fill:black;font-family:sans-serif;font-size:13;" transform="matrix(1 0 0 1 1289 1989)">design is preserved when submitting to Xcode.</text>
  <text id="template-version" style="stroke:none;fill:black;font-family:sans-serif;font-size:13;text-anchor:end;" transform="matrix(1 0 0 1 3036 1933)">Template v.3.0</text>
  <text style="stroke:none;fill:black;font-family:sans-serif;font-size:13;text-anchor:end;" transform="matrix(1 0 0 1 3036 1951)">Requires Xcode 13 or greater</text>
  <text id="descriptive-name" style="stroke:none;fill:black;font-family:sans-serif;font-size:13;text-anchor:end;" transform="matrix(1 0 0 1 3036 1969)">Generated from fork.knife.circle</text>
  <text style="stroke:none;fill:black;font-family:sans-serif;font-size:13;text-anchor:end;" transform="matrix(1 0 0 1 3036 1987)">Typeset at 100 points</text>
  <text style="stroke:none;fill:black;font-family:sans-serif;font-size:13;" transform="matrix(1 0 0 1 263 726)">Small</text>
  <text style="stroke:none;fill:black;font-family:sans-serif;font-size:13;" transform="matrix(1 0 0 1 263 1156)">Medium</text>
  <text style="stroke:none;fill:black;font-family:sans-serif;font-size:13;" transform="matrix(1 0 0 1 263 1586)">Large</text>
 </g>
 <g id="Guides">
  <g id="H-reference" style="fill:#27AAE1;stroke:none;" transform="matrix(1 0 0 1 339 696)">
   <path d="M0.976562 0L3.66211 0L29.3457-67.1387L30.0293-67.1387L30.0293-70.459L28.125-70.459ZM11.6699-24.4629L46.9727-24.4629L46.2402-26.709L12.4512-26.709ZM55.127 0L57.7637 0L30.6152-70.459L29.4434-70.459L29.4434-67.1387Z"/>
  </g>
  <line id="Baseline-S" style="fill:none;stroke:#27AAE1;opacity:1;stroke-width:0.5;" x1="263" x2="3036" y1="696" y2="696"/>
  <line id="Capline-S" style="fill:none;stroke:#27AAE1;opacity:1;stroke-width:0.5;" x1="263" x2="3036" y1="625.541" y2="625.541"/>
  <g id="H-reference" style="fill:#27AAE1;stroke:none;" transform="matrix(1 0 0 1 339 1126)">
   <path d="M0.976562 0L3.66211 0L29.3457-67.1387L30.0293-67.1387L30.0293-70.459L28.125-70.459ZM11.6699-24.4629L46.9727-24.4629L46.2402-26.709L12.4512-26.709ZM55.127 0L57.7637 0L30.6152-70.459L29.4434-70.459L29.4434-67.1387Z"/>
  </g>
  <line id="Baseline-M" style="fill:none;stroke:#27AAE1;opacity:1;stroke-width:0.5;" x1="263" x2="3036" y1="1126" y2="1126"/>
  <line id="Capline-M" style="fill:none;stroke:#27AAE1;opacity:1;stroke-width:0.5;" x1="263" x2="3036" y1="1055.54" y2="1055.54"/>
  <g id="H-reference" style="fill:#27AAE1;stroke:none;" transform="matrix(1 0 0 1 339 1556)">
   <path d="M0.976562 0L3.66211 0L29.3457-67.1387L30.0293-67.1387L30.0293-70.459L28.125-70.459ZM11.6699-24.4629L46.9727-24.4629L46.2402-26.709L12.4512-26.709ZM55.127 0L57.7637 0L30.6152-70.459L29.4434-70.459L29.4434-67.1387Z"/>
  </g>
  <line id="Baseline-L" style="fill:none;stroke:#27AAE1;opacity:1;stroke-width:0.5;" x1="263" x2="3036" y1="1556" y2="1556"/>
  <line id="Capline-L" style="fill:none;stroke:#27AAE1;opacity:1;stroke-width:0.5;" x1="263" x2="3036" y1="1485.54" y2="1485.54"/>
  <line id="left-margin-Ultralight-S" style="fill:none;stroke:#00AEEF;stroke-width:0.5;opacity:1.0;" x1="515.644" x2="515.644" y1="600.785" y2="720.121"/>
  <line id="right-margin-Ultralight-S" style="fill:none;stroke:#00AEEF;stroke-width:0.5;opacity:1.0;" x1="603.778" x2="603.778" y1="600.785" y2="720.121"/>
  <line id="left-margin-Thin-S" style="fill:none;stroke:#00AEEF;stroke-width:0.5;opacity:1.0;" x1="811.867" x2="811.867" y1="600.785" y2="720.121"/>
  <line id="right-margin-Thin-S" style="fill:none;stroke:#00AEEF;stroke-width:0.5;opacity:1.0;" x1="900.978" x2="900.978" y1="600.785" y2="720.121"/>
  <line id="left-margin-Light-S" style="fill:none;stroke:#00AEEF;stroke-width:0.5;opacity:1.0;" x1="1107.6" x2="1107.6" y1="600.785" y2="720.121"/>
  <line id="right-margin-Light-S" style="fill:none;stroke:#00AEEF;stroke-width:0.5;opacity:1.0;" x1="1198.67" x2="1198.67" y1="600.785" y2="720.121"/>
  <line id="left-margin-Regular-S" style="fill:none;stroke:#00AEEF;stroke-width:0.5;opacity:1.0;" x1="1403.58" x2="1403.58" y1="600.785" y2="720.121"/>
  <line id="right-margin-Regular-S" style="fill:none;stroke:#00AEEF;stroke-width:0.5;opacity:1.0;" x1="1496.11" x2="1496.11" y1="600.785" y2="720.121"/>
  <line id="left-margin-Medium-S" style="fill:none;stroke:#00AEEF;stroke-width:0.5;opacity:1.0;" x1="1699.83" x2="1699.83" y1="600.785" y2="720.121"/>
  <line id="right-margin-Medium-S" style="fill:none;stroke:#00AEEF;stroke-width:0.5;opacity:1.0;" x1="1793.28" x2="1793.28" y1="600.785" y2="720.121"/>
  <line id="left-margin-Semibold-S" style="fill:none;stroke:#00AEEF;stroke-width:0.5;opacity:1.0;" x1="1996.2" x2="1996.2" y1="600.785" y2="720.121"/>
  <line id="right-margin-Semibold-S" style="fill:none;stroke:#00AEEF;stroke-width:0.5;opacity:1.0;" x1="2090.34" x2="2090.34" y1="600.785" y2="720.121"/>
  <line id="left-margin-Bold-S" style="fill:none;stroke:#00AEEF;stroke-width:0.5;opacity:1.0;" x1="2292.42" x2="2292.42" y1="600.785" y2="720.121"/>
  <line id="right-margin-Bold-S" style="fill:none;stroke:#00AEEF;stroke-width:0.5;opacity:1.0;" x1="2387.54" x2="2387.54" y1="600.785" y2="720.121"/>
  <line id="left-margin-Heavy-S" style="fill:none;stroke:#00AEEF;stroke-width:0.5;opacity:1.0;" x1="2588.47" x2="2588.47" y1="600.785" y2="720.121"/>
  <line id="right-margin-Heavy-S" style="fill:none;stroke:#00AEEF;stroke-width:0.5;opacity:1.0;" x1="2684.91" x2="2684.91" y1="600.785" y2="720.121"/>
  <line id="left-margin-Black-S" style="fill:none;stroke:#00AEEF;stroke-width:0.5;opacity:1.0;" x1="2884.57" x2="2884.57" y1="600.785" y2="720.121"/>
  <line id="right-margin-Black-S" style="fill:none;stroke:#00AEEF;stroke-width:0.5;opacity:1.0;" x1="2982.23" x2="2982.23" y1="600.785" y2="720.121"/>
  <line id="left-margin-Ultralight-M" style="fill:none;stroke:#00AEEF;stroke-width:0.5;opacity:1.0;" x1="503.632" x2="503.632" y1="1030.79" y2="1150.12"/>
  <line id="right-margin-Ultralight-M" style="fill:none;stroke:#00AEEF;stroke-width:0.5;opacity:1.0;" x1="615.79" x2="615.79" y1="1030.79" y2="1150.12"/>
  <line id="left-margin-Thin-M" style="fill:none;stroke:#00AEEF;stroke-width:0.5;opacity:1.0;" x1="799.782" x2="799.782" y1="1030.79" y2="1150.12"/>
  <line id="right-margin-Thin-M" style="fill:none;stroke:#00AEEF;stroke-width:0.5;opacity:1.0;" x1="913.063" x2="913.063" y1="1030.79" y2="1150.12"/>
  <line id="left-margin-Light-M" style="fill:none;stroke:#00AEEF;stroke-width:0.5;opacity:1.0;" x1="1095.42" x2="1095.42" y1="1030.79" y2="1150.12"/>
  <line id="right-margin-Light-M" style="fill:none;stroke:#00AEEF;stroke-width:0.5;opacity:1.0;" x1="1210.85" x2="1210.85" y1="1030.79" y2="1150.12"/>
  <line id="left-margin-Regular-M" style="fill:none;stroke:#00AEEF;stroke-width:0.5;opacity:1.0;" x1="1391.3" x2="1391.3" y1="1030.79" y2="1150.12"/>
  <line id="right-margin-Regular-M" style="fill:none;stroke:#00AEEF;stroke-width:0.5;opacity:1.0;" x1="1508.39" x2="1508.39" y1="1030.79" y2="1150.12"/>
  <line id="left-margin-Medium-M" style="fill:none;stroke:#00AEEF;stroke-width:0.5;opacity:1.0;" x1="1687.38" x2="1687.38" y1="1030.79" y2="1150.12"/>
  <line id="right-margin-Medium-M" style="fill:none;stroke:#00AEEF;stroke-width:0.5;opacity:1.0;" x1="1805.74" x2="1805.74" y1="1030.79" y2="1150.12"/>
  <line id="left-margin-Semibold-M" style="fill:none;stroke:#00AEEF;stroke-width:0.5;opacity:1.0;" x1="1983.6" x2="1983.6" y1="1030.79" y2="1150.12"/>
  <line id="right-margin-Semibold-M" style="fill:none;stroke:#00AEEF;stroke-width:0.5;opacity:1.0;" x1="2102.93" x2="2102.93" y1="1030.79" y2="1150.12"/>
  <line id="left-margin-Bold-M" style="fill:none;stroke:#00AEEF;stroke-width:0.5;opacity:1.0;" x1="2279.65" x2="2279.65" y1="1030.79" y2="1150.12"/>
  <line id="right-margin-Bold-M" style="fill:none;stroke:#00AEEF;stroke-width:0.5;opacity:1.0;" x1="2400.3" x2="2400.3" y1="1030.79" y2="1150.12"/>
  <line id="left-margin-Heavy-M" style="fill:none;stroke:#00AEEF;stroke-width:0.5;opacity:1.0;" x1="2575.43" x2="2575.43" y1="1030.79" y2="1150.12"/>
  <line id="right-margin-Heavy-M" style="fill:none;stroke:#00AEEF;stroke-width:0.5;opacity:1.0;" x1="2697.94" x2="2697.94" y1="1030.79" y2="1150.12"/>
  <line id="left-margin-Black-M" style="fill:none;stroke:#00AEEF;stroke-width:0.5;opacity:1.0;" x1="2871.32" x2="2871.32" y1="1030.79" y2="1150.12"/>
  <line id="right-margin-Black-M" style="fill:none;stroke:#00AEEF;stroke-width:0.5;opacity:1.0;" x1="2995.48" x2="2995.48" y1="1030.79" y2="1150.12"/>
  <line id="left-margin-Ultralight-L" style="fill:none;stroke:#00AEEF;stroke-width:0.5;opacity:1.0;" x1="487.592" x2="487.592" y1="1460.79" y2="1580.12"/>
  <line id="right-margin-Ultralight-L" style="fill:none;stroke:#00AEEF;stroke-width:0.5;opacity:1.0;" x1="631.83" x2="631.83" y1="1460.79" y2="1580.12"/>
  <line id="left-margin-Thin-L" style="fill:none;stroke:#00AEEF;stroke-width:0.5;opacity:1.0;" x1="783.693" x2="783.693" y1="1460.79" y2="1580.12"/>
  <line id="right-margin-Thin-L" style="fill:none;stroke:#00AEEF;stroke-width:0.5;opacity:1.0;" x1="929.152" x2="929.152" y1="1460.79" y2="1580.12"/>
  <line id="left-margin-Light-L" style="fill:none;stroke:#00AEEF;stroke-width:0.5;opacity:1.0;" x1="1079.18" x2="1079.18" y1="1460.79" y2="1580.12"/>
  <line id="right-margin-Light-L" style="fill:none;stroke:#00AEEF;stroke-width:0.5;opacity:1.0;" x1="1227.08" x2="1227.08" y1="1460.79" y2="1580.12"/>
  <line id="left-margin-Regular-L" style="fill:none;stroke:#00AEEF;stroke-width:0.5;opacity:1.0;" x1="1374.97" x2="1374.97" y1="1460.79" y2="1580.12"/>
  <line id="right-margin-Regular-L" style="fill:none;stroke:#00AEEF;stroke-width:0.5;opacity:1.0;" x1="1524.72" x2="1524.72" y1="1460.79" y2="1580.12"/>
  <line id="left-margin-Medium-L" style="fill:none;stroke:#00AEEF;stroke-width:0.5;opacity:1.0;" x1="1670.87" x2="1670.87" y1="1460.79" y2="1580.12"/>
  <line id="right-margin-Medium-L" style="fill:none;stroke:#00AEEF;stroke-width:0.5;opacity:1.0;" x1="1822.24" x2="1822.24" y1="1460.79" y2="1580.12"/>
  <line id="left-margin-Semibold-L" style="fill:none;stroke:#00AEEF;stroke-width:0.5;opacity:1.0;" x1="1966.97" x2="1966.97" y1="1460.79" y2="1580.12"/>
  <line id="right-margin-Semibold-L" style="fill:none;stroke:#00AEEF;stroke-width:0.5;opacity:1.0;" x1="2119.56" x2="2119.56" y1="1460.79" y2="1580.12"/>
  <line id="left-margin-Bold-L" style="fill:none;stroke:#00AEEF;stroke-width:0.5;opacity:1.0;" x1="2262.85" x2="2262.85" y1="1460.79" y2="1580.12"/>
  <line id="right-margin-Bold-L" style="fill:none;stroke:#00AEEF;stroke-width:0.5;opacity:1.0;" x1="2417.1" x2="2417.1" y1="1460.79" y2="1580.12"/>
  <line id="left-margin-Heavy-L" style="fill:none;stroke:#00AEEF;stroke-width:0.5;opacity:1.0;" x1="2558.39" x2="2558.39" y1="1460.79" y2="1580.12"/>
  <line id="right-margin-Heavy-L" style="fill:none;stroke:#00AEEF;stroke-width:0.5;opacity:1.0;" x1="2714.98" x2="2714.98" y1="1460.79" y2="1580.12"/>
  <line id="left-margin-Black-L" style="fill:none;stroke:#00AEEF;stroke-width:0.5;opacity:1.0;" x1="2854.05" x2="2854.05" y1="1460.79" y2="1580.12"/>
  <line id="right-margin-Black-L" style="fill:none;stroke:#00AEEF;stroke-width:0.5;opacity:1.0;" x1="3012.75" x2="3012.75" y1="1460.79" y2="1580.12"/>
 </g>
 <g id="Symbols">
  <g id="Black-L" transform="matrix(1 0 0 1 2854.05 1556)">
   <path class="multicolor-0:systemOrangeColor hierarchical-0:secondary SFSymbolsPreviewFF9500" d="M79.3457 32.8613Q90.5762 32.8613 100.757 29.3945Q110.938 25.9277 119.458 19.6777Q127.979 13.4277 134.229 4.90723Q140.479-3.61328 143.945-13.7939Q147.412-23.9746 147.412-35.2051Q147.412-46.4355 143.945-56.6162Q140.479-66.7969 134.204-75.3174Q127.93-83.8379 119.434-90.1123Q110.938-96.3867 100.732-99.8291Q90.5273-103.271 79.2969-103.271Q68.1152-103.271 57.9102-99.8291Q47.7051-96.3867 39.209-90.1123Q30.7129-83.8379 24.4385-75.3174Q18.1641-66.7969 14.7217-56.6162Q11.2793-46.4355 11.2793-35.2051Q11.2793-23.9746 14.7217-13.7939Q18.1641-3.61328 24.4385 4.90723Q30.7129 13.4277 39.2334 19.6777Q47.7539 25.9277 57.9346 29.3945Q68.1152 32.8613 79.3457 32.8613ZM79.3457 12.4023Q71.4355 12.4023 64.2822 10.0098Q57.1289 7.61719 51.1963 3.24707Q45.2637-1.12305 40.8936-7.08008Q36.5234-13.0371 34.1309-20.166Q31.7383-27.2949 31.7383-35.2051Q31.7383-43.1152 34.1309-50.2686Q36.5234-57.4219 40.8936-63.3545Q45.2637-69.2871 51.1963-73.6572Q57.1289-78.0273 64.2578-80.4199Q71.3867-82.8125 79.2969-82.8125Q87.207-82.8125 94.3604-80.4199Q101.514-78.0273 107.471-73.6572Q113.428-69.2871 117.798-63.3545Q122.168-57.4219 124.561-50.2686Q126.953-43.1152 126.953-35.2051Q126.953-27.2949 124.561-20.166Q122.168-13.0371 117.798-7.08008Q113.428-1.12305 107.495 3.24707Q101.562 7.61719 94.4092 10.0098Q87.2559 12.4023 79.3457 12.4023Z"/>
   <path class="multicolor-0:systemOrangeColor hierarchical-1:primary SFSymbolsPreviewFF9500" d="M67.4316 1.2207Q69.6777 1.2207 70.9717 0Q72.2656-1.2207 72.168-3.27148L71.6309-37.5488Q71.6309-39.3555 72.998-40.0879Q76.3184-41.6016 77.8809-43.75Q79.4434-45.8984 79.1992-50.6348L78.2715-68.4082Q78.125-71.1914 75.7324-71.1914Q73.3398-71.1914 73.3398-68.3594L73.584-51.123Q73.584-49.2188 71.9727-49.2188Q71.1914-49.2188 70.7031-49.7314Q70.2148-50.2441 70.2148-51.0254L69.9707-68.9941Q69.9707-71.6309 67.4316-71.6309Q64.9414-71.6309 64.9414-68.9941L64.6484-51.0254Q64.6484-50.2441 64.1846-49.7314Q63.7207-49.2188 62.9395-49.2188Q61.3281-49.2188 61.3281-51.123L61.6699-68.3594Q61.6699-71.1914 59.1797-71.1914Q56.7383-71.1914 56.5918-68.4082L55.7617-50.6348Q55.5176-45.8984 57.0557-43.75Q58.5938-41.6016 61.9141-40.0879Q62.7441-39.6484 63.0615-39.1357Q63.3789-38.623 63.3789-37.5488L62.7441-3.27148Q62.6953-1.17188 63.9893 0.0244141Q65.2832 1.2207 67.4316 1.2207ZM89.7461-25.1465L89.2578-3.27148Q89.209-1.17188 90.5029 0.0244141Q91.7969 1.2207 93.9941 1.2207Q96.2891 1.2207 97.5098 0.0244141Q98.7305-1.17188 98.7305-3.17383L98.7305-69.0918Q98.7305-70.2637 98.0469-70.9473Q97.3633-71.6309 96.3379-71.6309Q95.3613-71.6309 94.6533-71.1182Q93.9453-70.6055 93.1641-69.4824Q90.6738-66.0645 88.6719-60.498Q86.6699-54.9316 85.498-48.6084Q84.3262-42.2852 84.3262-36.5234L84.3262-34.4727Q84.3262-32.7148 84.9365-31.4697Q85.5469-30.2246 87.1582-29.248L88.1836-28.6133Q89.1113-28.0273 89.4531-27.2949Q89.7949-26.5625 89.7461-25.1465Z"/>
  </g>
  <g id="Heavy-L" transform="matrix(1 0 0 1 2558.39 1556)">
   <path class="multicolor-0:systemOrangeColor hierarchical-0:secondary SFSymbolsPreviewFF9500" d="M78.2715 31.7871Q89.3555 31.7871 99.3652 28.3691Q109.375 24.9512 117.749 18.7988Q126.123 12.6465 132.3 4.24805Q138.477-4.15039 141.895-14.1602Q145.312-24.1699 145.312-35.2051Q145.312-46.2402 141.895-56.2744Q138.477-66.3086 132.3-74.6826Q126.123-83.0566 117.749-89.2578Q109.375-95.459 99.3408-98.8525Q89.3066-102.246 78.2227-102.246Q67.2363-102.246 57.2021-98.8525Q47.168-95.459 38.7939-89.2578Q30.4199-83.0566 24.2432-74.6826Q18.0664-66.3086 14.6729-56.2744Q11.2793-46.2402 11.2793-35.2051Q11.2793-24.1699 14.6729-14.1602Q18.0664-4.15039 24.2432 4.24805Q30.4199 12.6465 38.8184 18.7988Q47.2168 24.9512 57.2266 28.3691Q67.2363 31.7871 78.2715 31.7871ZM78.2715 14.0137Q70.1172 14.0137 62.7197 11.5479Q55.3223 9.08203 49.1943 4.56543Q43.0664 0.0488281 38.5498-6.12793Q34.0332-12.3047 31.543-19.6777Q29.0527-27.0508 29.0527-35.2051Q29.0527-43.4082 31.543-50.8057Q34.0332-58.2031 38.5254-64.3311Q43.0176-70.459 49.1699-74.9756Q55.3223-79.4922 62.6953-81.9824Q70.0684-84.4727 78.2227-84.4727Q86.4258-84.4727 93.8232-81.9824Q101.221-79.4922 107.373-74.9756Q113.525-70.459 118.042-64.3311Q122.559-58.2031 125.049-50.8057Q127.539-43.4082 127.539-35.2051Q127.539-27.0508 125.049-19.6777Q122.559-12.3047 118.042-6.12793Q113.525 0.0488281 107.397 4.56543Q101.27 9.08203 93.8721 11.5479Q86.4746 14.0137 78.2715 14.0137Z"/>
   <path class="multicolor-0:systemOrangeColor hierarchical-1:primary SFSymbolsPreviewFF9500" d="M66.0156 2.34375Q68.2617 2.34375 69.5557 1.14746Q70.8496-0.0488281 70.752-2.14844L70.2148-37.793Q70.2148-39.6484 71.6309-40.3809Q75-41.8945 76.5625-44.043Q78.125-46.1914 77.8809-50.9277L76.9043-69.6289Q76.7578-72.3633 74.4141-72.3633Q72.0703-72.3633 72.0703-69.5801L72.3145-51.416Q72.3145-49.4629 70.6055-49.4629Q69.7754-49.4629 69.2627-49.9756Q68.75-50.4883 68.75-51.3184L68.5059-70.2148Q68.5059-72.8027 66.0156-72.8027Q63.5742-72.8027 63.5742-70.2148L63.2812-51.3184Q63.2812-50.4883 62.793-49.9756Q62.3047-49.4629 61.4746-49.4629Q59.8145-49.4629 59.8145-51.416L60.1074-69.5801Q60.1074-72.3633 57.7148-72.3633Q55.2734-72.3633 55.127-69.6289L54.2969-50.9277Q54.0527-46.1914 55.5908-44.043Q57.1289-41.8945 60.498-40.3809Q61.3281-39.9414 61.6455-39.3799Q61.9629-38.8184 61.9629-37.793L61.3281-2.14844Q61.2793 0 62.5732 1.17188Q63.8672 2.34375 66.0156 2.34375ZM88.8672-24.8535L88.2812-2.19727Q88.2324-0.0488281 89.5264 1.14746Q90.8203 2.34375 93.0176 2.34375Q95.3125 2.34375 96.5332 1.17188Q97.7539 0 97.7539-2.00195L97.7539-70.2637Q97.7539-71.4355 97.0703-72.1191Q96.3867-72.8027 95.3613-72.8027Q94.3848-72.8027 93.6768-72.2656Q92.9688-71.7285 92.1875-70.6055Q89.5996-67.041 87.5732-61.377Q85.5469-55.7129 84.375-49.1943Q83.2031-42.6758 83.2031-36.5723L83.2031-34.4238Q83.2031-32.6172 83.8379-31.3477Q84.4727-30.0781 85.9863-29.1016L87.207-28.3203Q88.1836-27.6855 88.5498-26.9531Q88.916-26.2207 88.8672-24.8535Z"/>
  </g>
  <g id="Bold-L" transform="matrix(1 0 0 1 2262.85 1556)">
   <path class="multicolor-0:systemOrangeColor hierarchical-0:secondary SFSymbolsPreviewFF9500" d="M77.0996 30.6152Q87.9395 30.6152 97.7783 27.2461Q107.617 23.877 115.869 17.8223Q124.121 11.7676 130.176 3.51562Q136.23-4.73633 139.6-14.5752Q142.969-24.4141 142.969-35.2539Q142.969-46.0938 139.6-55.9326Q136.23-65.7715 130.151-73.999Q124.072-82.2266 115.845-88.3057Q107.617-94.3848 97.7539-97.7295Q87.8906-101.074 77.0508-101.074Q66.2598-101.074 56.3965-97.7295Q46.5332-94.3848 38.3301-88.3057Q30.127-82.2266 24.0479-73.999Q17.9688-65.7715 14.624-55.9326Q11.2793-46.0938 11.2793-35.2539Q11.2793-24.4141 14.624-14.5752Q17.9688-4.73633 24.0479 3.51562Q30.127 11.7676 38.3545 17.8223Q46.582 23.877 56.4209 27.2461Q66.2598 30.6152 77.0996 30.6152ZM77.0996 15.8203Q68.6523 15.8203 60.9863 13.2568Q53.3203 10.6934 46.9482 6.00586Q40.5762 1.31836 35.8887-5.07812Q31.2012-11.4746 28.6377-19.1162Q26.0742-26.7578 26.0742-35.2539Q26.0742-43.75 28.6377-51.416Q31.2012-59.082 35.8887-65.4541Q40.5762-71.8262 46.9238-76.4893Q53.2715-81.1523 60.9375-83.7158Q68.6035-86.2793 77.0508-86.2793Q85.5469-86.2793 93.2129-83.7158Q100.879-81.1523 107.275-76.4893Q113.672-71.8262 118.335-65.4541Q122.998-59.082 125.586-51.416Q128.174-43.75 128.174-35.2539Q128.174-26.7578 125.61-19.1162Q123.047-11.4746 118.359-5.07812Q113.672 1.31836 107.3 6.00586Q100.928 10.6934 93.2617 13.2568Q85.5957 15.8203 77.0996 15.8203Z"/>
   <path class="multicolor-0:systemOrangeColor hierarchical-1:primary SFSymbolsPreviewFF9500" d="M64.502 3.66211Q66.6992 3.66211 68.0176 2.46582Q69.3359 1.26953 69.2383-0.878906L68.6523-38.0859Q68.6523-39.9414 70.1172-40.6738Q73.5352-42.2363 75.0977-44.3848Q76.6602-46.5332 76.416-51.2207L75.3906-71.0449Q75.293-73.6328 72.998-73.6328Q70.6543-73.6328 70.6543-70.9961L70.8984-51.709Q70.8984-49.7559 69.1406-49.7559Q68.2617-49.7559 67.7246-50.2686Q67.1875-50.7812 67.1875-51.6113L66.9434-71.582Q66.9434-74.0723 64.502-74.0723Q62.1094-74.0723 62.1094-71.582L61.7676-51.6113Q61.7676-50.7812 61.2549-50.2686Q60.7422-49.7559 59.9121-49.7559Q58.1055-49.7559 58.1055-51.709L58.4473-70.9961Q58.4473-73.6328 56.0547-73.6328Q53.7109-73.6328 53.5645-71.0449L52.6855-51.2207Q52.4902-46.5332 54.0039-44.3848Q55.5176-42.2363 58.9355-40.6738Q59.7656-40.2832 60.1074-39.6973Q60.4492-39.1113 60.4492-38.0859L59.8145-0.878906Q59.7168 1.26953 61.0352 2.46582Q62.3535 3.66211 64.502 3.66211ZM87.8906-24.5117L87.207-1.02539Q87.1582 1.2207 88.4766 2.44141Q89.7949 3.66211 91.9434 3.66211Q94.2383 3.66211 95.4834 2.49023Q96.7285 1.31836 96.7285-0.732422L96.7285-71.5332Q96.7285-72.8027 96.0205-73.4375Q95.3125-74.0723 94.3359-74.0723Q93.3594-74.0723 92.6514-73.5596Q91.9434-73.0469 91.1621-71.875Q88.4277-68.1641 86.377-62.3779Q84.3262-56.5918 83.1543-49.8779Q81.9824-43.1641 81.9824-36.6699L81.9824-34.375Q81.9824-32.5195 82.6416-31.25Q83.3008-29.9805 84.7656-29.0039L86.1816-27.9785Q87.1582-27.3438 87.5488-26.5869Q87.9395-25.8301 87.8906-24.5117Z"/>
  </g>
  <g id="Semibold-L" transform="matrix(1 0 0 1 1966.97 1556)">
   <path class="multicolor-0:systemOrangeColor hierarchical-0:secondary SFSymbolsPreviewFF9500" d="M76.2695 29.7852Q86.9629 29.7852 96.6797 26.4648Q106.396 23.1445 114.551 17.1631Q122.705 11.1816 128.687 3.02734Q134.668-5.12695 137.988-14.8438Q141.309-24.5605 141.309-35.2539Q141.309-45.9473 137.988-55.6641Q134.668-65.3809 128.662-73.5107Q122.656-81.6406 114.526-87.6465Q106.396-93.6523 96.6553-96.9727Q86.9141-100.293 76.2207-100.293Q65.5273-100.293 55.8105-96.9727Q46.0938-93.6523 37.9883-87.6465Q29.8828-81.6406 23.877-73.5107Q17.8711-65.3809 14.5752-55.6641Q11.2793-45.9473 11.2793-35.2539Q11.2793-24.5605 14.5996-14.8438Q17.9199-5.12695 23.9014 3.02734Q29.8828 11.1816 38.0127 17.1631Q46.1426 23.1445 55.8594 26.4648Q65.5762 29.7852 76.2695 29.7852ZM76.2695 17.041Q67.627 17.041 59.7656 14.4043Q51.9043 11.7676 45.3857 6.98242Q38.8672 2.19727 34.0576-4.3457Q29.248-10.8887 26.6357-18.7256Q24.0234-26.5625 24.0234-35.2539Q24.0234-43.9453 26.6357-51.8066Q29.248-59.668 34.0332-66.1865Q38.8184-72.7051 45.3369-77.4902Q51.8555-82.2754 59.7168-84.9121Q67.5781-87.5488 76.2207-87.5488Q84.9609-87.5488 92.7979-84.9121Q100.635-82.2754 107.178-77.4902Q113.721-72.7051 118.506-66.1865Q123.291-59.668 125.928-51.8066Q128.564-43.9453 128.564-35.2539Q128.613-26.5625 126.001-18.7256Q123.389-10.8887 118.579-4.3457Q113.77 2.19727 107.227 6.98242Q100.684 11.7676 92.8467 14.4043Q85.0098 17.041 76.2695 17.041Z"/>
   <path class="multicolor-0:systemOrangeColor hierarchical-1:primary SFSymbolsPreviewFF9500" d="M63.3301 4.54102Q65.5762 4.54102 66.8701 3.34473Q68.1641 2.14844 68.1152 0.0488281L67.4805-38.2324Q67.4805-40.1367 68.9941-40.8691Q72.4609-42.4316 74.0234-44.5801Q75.5859-46.7285 75.3418-51.416L74.2676-71.9727Q74.1699-74.5117 71.9238-74.5117Q69.6289-74.5117 69.6289-71.9238L69.873-51.9043Q69.873-49.9023 68.0176-49.9023Q67.1387-49.9023 66.5771-50.4395Q66.0156-50.9766 66.0156-51.8066L65.7715-72.5098Q65.7715-74.9512 63.3301-74.9512Q60.9863-74.9512 60.9863-72.5098L60.6445-51.8066Q60.6445-50.9766 60.1074-50.4395Q59.5703-49.9023 58.7402-49.9023Q56.8848-49.9023 56.8848-51.9043L57.1777-71.9238Q57.1777-74.5117 54.8828-74.5117Q52.5391-74.5117 52.3926-71.9727L51.4648-51.416Q51.3184-46.7285 52.8076-44.5801Q54.2969-42.4316 57.7637-40.8691Q58.5938-40.4785 58.9355-39.8682Q59.2773-39.2578 59.2773-38.2324L58.6426 0.0488281Q58.5938 2.14844 59.8877 3.34473Q61.1816 4.54102 63.3301 4.54102ZM87.1582-24.2676L86.4258-0.195312Q86.3281 2.09961 87.6465 3.32031Q88.9648 4.54102 91.1621 4.54102Q93.4082 4.54102 94.6777 3.39355Q95.9473 2.24609 95.9473 0.146484L95.9473-72.4121Q95.9473-73.6816 95.2148-74.3164Q94.4824-74.9512 93.5547-74.9512Q92.5781-74.9512 91.8457-74.4385Q91.1133-73.9258 90.332-72.7539Q87.5488-68.8965 85.4736-63.0371Q83.3984-57.1777 82.2266-50.3418Q81.0547-43.5059 81.0547-36.6699L81.0547-34.3262Q81.0547-32.4707 81.7383-31.1523Q82.4219-29.834 83.7891-28.8574L85.4004-27.7344Q86.377-27.0996 86.7676-26.3184Q87.1582-25.5371 87.1582-24.2676Z"/>
  </g>
  <g id="Medium-L" transform="matrix(1 0 0 1 1670.87 1556)">
   <path class="multicolor-0:systemOrangeColor hierarchical-0:secondary SFSymbolsPreviewFF9500" d="M75.6836 29.1504Q86.2305 29.1504 95.8496 25.8545Q105.469 22.5586 113.55 16.626Q121.631 10.6934 127.563 2.63672Q133.496-5.41992 136.792-15.0635Q140.088-24.707 140.088-35.2539Q140.088-45.8496 136.792-55.4688Q133.496-65.0879 127.539-73.1445Q121.582-81.2012 113.525-87.1582Q105.469-93.1152 95.8252-96.3867Q86.1816-99.6582 75.6348-99.6582Q65.0391-99.6582 55.4199-96.3867Q45.8008-93.1152 37.7441-87.1582Q29.6875-81.2012 23.7549-73.1445Q17.8223-65.0879 14.5508-55.4688Q11.2793-45.8496 11.2793-35.2539Q11.2793-24.707 14.5508-15.0635Q17.8223-5.41992 23.7549 2.63672Q29.6875 10.6934 37.7686 16.626Q45.8496 22.5586 55.4688 25.8545Q65.0879 29.1504 75.6836 29.1504ZM75.6836 18.0176Q66.8457 18.0176 58.8379 15.332Q50.8301 12.6465 44.2139 7.76367Q37.5977 2.88086 32.6904-3.78418Q27.7832-10.4492 25.1221-18.4326Q22.4609-26.416 22.4609-35.2539Q22.4609-44.1406 25.1221-52.124Q27.7832-60.1074 32.666-66.748Q37.5488-73.3887 44.165-78.2715Q50.7812-83.1543 58.7891-85.8154Q66.7969-88.4766 75.6348-88.4766Q84.4727-88.4766 92.4805-85.8154Q100.488-83.1543 107.129-78.2715Q113.77-73.3887 118.652-66.748Q123.535-60.1074 126.221-52.124Q128.906-44.1406 128.906-35.2539Q128.955-26.416 126.294-18.4326Q123.633-10.4492 118.726-3.78418Q113.818 2.88086 107.178 7.76367Q100.537 12.6465 92.5293 15.332Q84.5215 18.0176 75.6836 18.0176Z"/>
   <path class="multicolor-0:systemOrangeColor hierarchical-1:primary SFSymbolsPreviewFF9500" d="M62.5488 5.17578Q64.7461 5.17578 66.0645 4.00391Q67.3828 2.83203 67.334 0.683594L66.6504-38.3789Q66.6504-40.332 68.2617-41.0645Q71.7285-42.627 73.2666-44.7754Q74.8047-46.9238 74.5605-51.6113L73.5352-72.7051Q73.3887-75.1953 71.1914-75.1953Q68.8965-75.1953 68.8965-72.6562L69.1406-52.0996Q69.1406-50.0488 67.2363-50.0488Q66.3574-50.0488 65.7959-50.5859Q65.2344-51.123 65.2344-52.002L64.9902-73.2422Q64.9902-75.6348 62.5488-75.6348Q60.2051-75.6348 60.2051-73.2422L59.9121-52.002Q59.9121-51.123 59.3262-50.5859Q58.7402-50.0488 57.9102-50.0488Q56.0059-50.0488 56.0059-52.0996L56.2988-72.6562Q56.2988-75.1953 54.0039-75.1953Q51.7578-75.1953 51.6113-72.7051L50.6348-51.6113Q50.4883-46.9238 51.9775-44.7754Q53.4668-42.627 56.9336-41.0645Q57.7637-40.6738 58.1299-40.0391Q58.4961-39.4043 58.4961-38.3789L57.8613 0.683594Q57.7637 2.83203 59.082 4.00391Q60.4004 5.17578 62.5488 5.17578ZM86.6699-24.1211L85.8398 0.390625Q85.791 2.73438 87.1094 3.95508Q88.4277 5.17578 90.5762 5.17578Q92.8711 5.17578 94.1406 4.05273Q95.4102 2.92969 95.4102 0.830078L95.4102-73.0957Q95.4102-74.3652 94.6777-75Q93.9453-75.6348 93.0176-75.6348Q92.041-75.6348 91.3086-75.0977Q90.5762-74.5605 89.7949-73.3887Q86.9629-69.4824 84.8633-63.5498Q82.7637-57.6172 81.5918-50.6836Q80.4199-43.75 80.4199-36.7188L80.4199-34.3262Q80.4199-32.373 81.1035-31.0791Q81.7871-29.7852 83.1543-28.8086L84.8633-27.5879Q85.8398-26.9043 86.2549-26.123Q86.6699-25.3418 86.6699-24.1211Z"/>
  </g>
  <g id="Regular-L" transform="matrix(1 0 0 1 1374.97 1556)">
   <path class="multicolor-0:systemOrangeColor hierarchical-0:secondary SFSymbolsPreviewFF9500" d="M74.8535 28.3203Q85.3027 28.3203 94.7998 25.0732Q104.297 21.8262 112.256 15.9668Q120.215 10.1074 126.099 2.14844Q131.982-5.81055 135.229-15.332Q138.477-24.8535 138.477-35.2539Q138.477-45.7031 135.229-55.2002Q131.982-64.6973 126.099-72.6562Q120.215-80.6152 112.256-86.499Q104.297-92.3828 94.7754-95.6299Q85.2539-98.877 74.8047-98.877Q64.3555-98.877 54.8584-95.6299Q45.3613-92.3828 37.4268-86.499Q29.4922-80.6152 23.6084-72.6562Q17.7246-64.6973 14.502-55.2002Q11.2793-45.7031 11.2793-35.2539Q11.2793-24.8535 14.5264-15.332Q17.7734-5.81055 23.6328 2.14844Q29.4922 10.1074 37.4512 15.9668Q45.4102 21.8262 54.9072 25.0732Q64.4043 28.3203 74.8535 28.3203ZM74.8535 19.2383Q65.8203 19.2383 57.6416 16.4795Q49.4629 13.7207 42.6758 8.74023Q35.8887 3.75977 30.8838-3.05176Q25.8789-9.86328 23.1445-18.042Q20.4102-26.2207 20.4102-35.2539Q20.4102-44.3359 23.1445-52.5146Q25.8789-60.6934 30.8594-67.5049Q35.8398-74.3164 42.627-79.2969Q49.4141-84.2773 57.5928-87.0117Q65.7715-89.7461 74.8047-89.7461Q83.8867-89.7461 92.0654-87.0117Q100.244-84.2773 107.056-79.2969Q113.867-74.3164 118.848-67.5049Q123.828-60.6934 126.587-52.5146Q129.346-44.3359 129.346-35.2539Q129.395-26.2207 126.66-18.042Q123.926-9.86328 118.921-3.05176Q113.916 3.75977 107.104 8.74023Q100.293 13.7207 92.1143 16.4795Q83.9355 19.2383 74.8535 19.2383Z"/>
   <path class="multicolor-0:systemOrangeColor hierarchical-1:primary SFSymbolsPreviewFF9500" d="M61.4746 6.05469Q63.6719 6.05469 64.9902 4.88281Q66.3086 3.71094 66.2598 1.5625L65.5762-38.5742Q65.5762-40.5273 67.1875-41.2598Q70.7031-42.8223 72.2412-44.9707Q73.7793-47.1191 73.5352-51.8066L72.4609-73.6328Q72.3633-76.0742 70.166-76.0742Q67.9199-76.0742 67.9199-73.584L68.1641-52.2949Q68.1641-50.2441 66.2109-50.2441Q65.2832-50.2441 64.6973-50.7812Q64.1113-51.3184 64.1113-52.1973L63.8672-74.1699Q63.8672-76.5137 61.4746-76.5137Q59.1797-76.5137 59.1797-74.1699L58.8379-52.1973Q58.8379-51.3184 58.252-50.7812Q57.666-50.2441 56.7871-50.2441Q54.834-50.2441 54.834-52.2949L55.127-73.584Q55.127-76.0742 52.8809-76.0742Q50.6348-76.0742 50.4883-73.6328L49.5117-51.8066Q49.3652-47.1191 50.8545-44.9707Q52.3438-42.8223 55.8594-41.2598Q56.6895-40.8691 57.0557-40.21Q57.4219-39.5508 57.4219-38.5742L56.7871 1.5625Q56.6895 3.71094 58.0078 4.88281Q59.3262 6.05469 61.4746 6.05469ZM85.9863-23.877L85.1074 1.2207Q85.0098 3.61328 86.3525 4.83398Q87.6953 6.05469 89.8438 6.05469Q92.0898 6.05469 93.3838 4.93164Q94.6777 3.80859 94.6777 1.70898L94.6777-73.9746Q94.6777-75.293 93.9209-75.9033Q93.1641-76.5137 92.2852-76.5137Q91.3086-76.5137 90.5762-75.9766Q89.8438-75.4395 89.0625-74.2676Q86.1328-70.2148 84.0088-64.209Q81.8848-58.2031 80.7129-51.123Q79.541-44.043 79.541-36.7676L79.541-34.2773Q79.541-32.3242 80.249-31.0059Q80.957-29.6875 82.2754-28.7109L84.1309-27.3438Q85.1074-26.6602 85.5469-25.8545Q85.9863-25.0488 85.9863-23.877Z"/>
  </g>
  <g id="Light-L" transform="matrix(1 0 0 1 1079.18 1556)">
   <path class="multicolor-0:systemOrangeColor hierarchical-0:secondary SFSymbolsPreviewFF9500" d="M73.9258 27.3926Q84.2285 27.3926 93.6035 24.1943Q102.979 20.9961 110.815 15.2344Q118.652 9.47266 124.438 1.63574Q130.225-6.20117 133.423-15.5762Q136.621-24.9512 136.621-35.2539Q136.621-45.5566 133.423-54.9316Q130.225-64.3066 124.438-72.1436Q118.652-79.9805 110.815-85.7666Q102.979-91.5527 93.6035-94.751Q84.2285-97.9492 73.877-97.9492Q63.5742-97.9492 54.2236-94.751Q44.873-91.5527 37.0361-85.7666Q29.1992-79.9805 23.4131-72.1436Q17.627-64.3066 14.4531-54.9316Q11.2793-45.5566 11.2793-35.2539Q11.2793-24.9512 14.4775-15.5762Q17.6758-6.20117 23.4375 1.63574Q29.1992 9.47266 37.0361 15.2344Q44.873 20.9961 54.248 24.1943Q63.623 27.3926 73.9258 27.3926ZM73.9258 20.5078Q64.6973 20.5078 56.3232 17.6758Q47.9492 14.8438 40.9912 9.74121Q34.0332 4.63867 28.9307-2.31934Q23.8281-9.27734 21.0205-17.6514Q18.2129-26.0254 18.2129-35.2539Q18.2129-44.5312 21.0205-52.8809Q23.8281-61.2305 28.9307-68.2129Q34.0332-75.1953 40.9912-80.2979Q47.9492-85.4004 56.2988-88.208Q64.6484-91.0156 73.877-91.0156Q83.1543-91.0156 91.5283-88.208Q99.9023-85.4004 106.86-80.2979Q113.818-75.1953 118.945-68.2129Q124.072-61.2305 126.88-52.8809Q129.688-44.5312 129.688-35.2539Q129.736-26.0254 126.929-17.6514Q124.121-9.27734 118.994-2.31934Q113.867 4.63867 106.909 9.74121Q99.9512 14.8438 91.5771 17.6758Q83.2031 20.5078 73.9258 20.5078Z"/>
   <path class="multicolor-0:systemOrangeColor hierarchical-1:primary SFSymbolsPreviewFF9500" d="M60.5469 6.10352Q62.6953 6.10352 64.0137 4.93164Q65.332 3.75977 65.2832 1.66016L64.5508-38.7695Q64.5508-40.7227 66.1621-41.4551Q69.6777-43.0664 71.1182-45.2393Q72.5586-47.4121 72.3145-52.0996L71.2402-73.9258Q71.1426-76.2207 68.9941-76.2207Q66.8457-76.2207 66.8457-73.8281L67.041-52.5879Q67.041-50.5371 65.1855-50.5371Q64.2578-50.5371 63.6963-51.0498Q63.1348-51.5625 63.1348-52.4902L62.8418-74.4629Q62.8418-76.709 60.5469-76.709Q58.3008-76.709 58.3008-74.4629L58.0078-52.4902Q58.0078-51.5625 57.4219-51.0498Q56.8359-50.5371 56.0059-50.5371Q54.0527-50.5371 54.0527-52.5879L54.2969-73.8281Q54.2969-76.2207 52.0996-76.2207Q49.9512-76.2207 49.8047-73.9258L48.8281-52.0996Q48.6816-47.4121 50.0732-45.2393Q51.4648-43.0664 54.9805-41.4551Q55.8594-41.0645 56.2012-40.4297Q56.543-39.7949 56.543-38.7695L55.8594 1.66016Q55.7617 3.75977 57.1045 4.93164Q58.4473 6.10352 60.5469 6.10352ZM84.7168-23.3887L83.7402 1.07422Q83.6426 3.61328 85.0342 4.8584Q86.4258 6.10352 88.4766 6.10352Q90.6738 6.10352 91.9922 4.95605Q93.3105 3.80859 93.3105 1.70898L93.3105-74.2676Q93.3105-75.5371 92.6025-76.123Q91.8945-76.709 91.0645-76.709Q90.0879-76.709 89.4043-76.1963Q88.7207-75.6836 87.9883-74.6094Q85.0586-70.5078 82.9346-64.5264Q80.8105-58.5449 79.6631-51.4404Q78.5156-44.3359 78.5156-36.8164L78.5156-34.1797Q78.5156-32.1289 79.2236-30.8105Q79.9316-29.4922 81.25-28.5156L82.9102-27.2461Q83.8379-26.5625 84.3018-25.6592Q84.7656-24.7559 84.7168-23.3887Z"/>
  </g>
  <g id="Thin-L" transform="matrix(1 0 0 1 783.693 1556)">
   <path class="multicolor-0:systemOrangeColor hierarchical-0:secondary SFSymbolsPreviewFF9500" d="M72.7051 26.1719Q82.8613 26.1719 92.041 23.0469Q101.221 19.9219 108.911 14.2822Q116.602 8.64258 122.266 0.952148Q127.93-6.73828 131.055-15.9424Q134.18-25.1465 134.18-35.2539Q134.18-45.4102 131.055-54.5898Q127.93-63.7695 122.29-71.46Q116.65-79.1504 108.936-84.8145Q101.221-90.4785 92.0166-93.6035Q82.8125-96.7285 72.7051-96.7285Q62.5488-96.7285 53.3691-93.6035Q44.1895-90.4785 36.499-84.8145Q28.8086-79.1504 23.1689-71.46Q17.5293-63.7695 14.4043-54.5898Q11.2793-45.4102 11.2793-35.2539Q11.2793-25.1465 14.4043-15.9424Q17.5293-6.73828 23.1689 0.952148Q28.8086 8.64258 36.5234 14.2822Q44.2383 19.9219 53.418 23.0469Q62.5977 26.1719 72.7051 26.1719ZM72.7051 22.168Q63.2324 22.168 54.6143 19.2627Q45.9961 16.3574 38.8184 11.084Q31.6406 5.81055 26.3428-1.36719Q21.0449-8.54492 18.1641-17.1631Q15.2832-25.7812 15.2832-35.2539Q15.2832-44.7754 18.1641-53.3936Q21.0449-62.0117 26.3428-69.1895Q31.6406-76.3672 38.8184-81.6406Q45.9961-86.9141 54.5898-89.8193Q63.1836-92.7246 72.7051-92.7246Q82.2266-92.7246 90.8203-89.8193Q99.4141-86.9141 106.616-81.6406Q113.818-76.3672 119.092-69.1895Q124.365-62.0117 127.271-53.3936Q130.176-44.7754 130.176-35.2539Q130.176-25.7812 127.271-17.1631Q124.365-8.54492 119.092-1.36719Q113.818 5.81055 106.641 11.084Q99.4629 16.3574 90.8447 19.2627Q82.2266 22.168 72.7051 22.168Z"/>
   <path class="multicolor-0:systemOrangeColor hierarchical-1:primary SFSymbolsPreviewFF9500" d="M59.3262 6.15234Q61.4258 6.15234 62.7441 4.98047Q64.0625 3.80859 64.0137 1.75781L63.2812-38.9648Q63.2812-40.9668 64.8926-41.6992Q68.3105-43.3594 69.6533-45.5811Q70.9961-47.8027 70.8008-52.4902L69.7266-74.3164Q69.5801-76.4648 67.5293-76.4648Q65.4297-76.4648 65.4297-74.1699L65.5762-52.9785Q65.5762-50.8789 63.8184-50.8789Q62.9883-50.8789 62.4268-51.3916Q61.8652-51.9043 61.8652-52.8809L61.5234-74.8535Q61.5234-76.9043 59.3262-76.9043Q57.1289-76.9043 57.1289-74.8535L56.8848-52.8809Q56.8848-51.9043 56.2988-51.3916Q55.7129-50.8789 54.9316-50.8789Q53.0762-50.8789 53.0762-52.9785L53.2715-74.1699Q53.2715-76.4648 51.123-76.4648Q49.0723-76.4648 48.9258-74.3164L47.998-52.4902Q47.8027-47.8027 49.0723-45.5811Q50.3418-43.3594 53.8574-41.6992Q54.7363-41.2598 55.0537-40.6738Q55.3711-40.0879 55.3711-38.9648L54.6387 1.75781Q54.5898 3.80859 55.957 4.98047Q57.3242 6.15234 59.3262 6.15234ZM83.1055-22.7539L81.9824 0.927734Q81.8848 3.61328 83.3008 4.88281Q84.7168 6.15234 86.7188 6.15234Q88.8184 6.15234 90.1611 4.98047Q91.5039 3.80859 91.5039 1.70898L91.5039-74.6582Q91.5039-75.8789 90.8936-76.3916Q90.2832-76.9043 89.4043-76.9043Q88.5254-76.9043 87.8906-76.4404Q87.2559-75.9766 86.6211-75.0488Q83.6426-70.8984 81.543-64.9414Q79.4434-58.9844 78.3203-51.8311Q77.1973-44.6777 77.1973-36.8652L77.1973-34.0332Q77.1973-31.8359 77.9053-30.542Q78.6133-29.248 79.9316-28.2227L81.2988-27.0996Q82.2266-26.3672 82.666-25.3418Q83.1055-24.3164 83.1055-22.7539Z"/>
  </g>
  <g id="Ultralight-L" transform="matrix(1 0 0 1 487.592 1556)">
   <path class="multicolor-0:systemOrangeColor hierarchical-0:secondary SFSymbolsPreviewFF9500" d="M72.0703 25.5371Q82.1289 25.5371 91.2354 22.4609Q100.342 19.3848 107.935 13.7939Q115.527 8.20312 121.143 0.585938Q126.758-7.03125 129.858-16.1133Q132.959-25.1953 132.959-35.2539Q132.959-45.3125 129.858-54.4189Q126.758-63.5254 121.167-71.1182Q115.576-78.7109 107.959-84.3262Q100.342-89.9414 91.2354-93.0176Q82.1289-96.0938 72.0703-96.0938Q62.0605-96.0938 52.9541-93.0176Q43.8477-89.9414 36.2305-84.3262Q28.6133-78.7109 23.0225-71.1182Q17.4316-63.5254 14.3555-54.4189Q11.2793-45.3125 11.2793-35.2539Q11.2793-25.1953 14.3555-16.1133Q17.4316-7.03125 23.0225 0.585938Q28.6133 8.20312 36.2305 13.7939Q43.8477 19.3848 52.9541 22.4609Q62.0605 25.5371 72.0703 25.5371ZM72.0703 23.0469Q62.4512 23.0469 53.7109 20.0928Q44.9707 17.1387 37.6709 11.792Q30.3711 6.44531 25.0244-0.854492Q19.6777-8.1543 16.7236-16.8945Q13.7695-25.6348 13.7695-35.2539Q13.7695-44.9219 16.7236-53.6377Q19.6777-62.3535 25.0244-69.6533Q30.3711-76.9531 37.6953-82.3242Q45.0195-87.6953 53.7354-90.6494Q62.4512-93.6035 72.0703-93.6035Q81.7383-93.6035 90.4785-90.6494Q99.2188-87.6953 106.494-82.3242Q113.77-76.9531 119.141-69.6533Q124.512-62.3535 127.466-53.6377Q130.42-44.9219 130.42-35.2539Q130.371-25.6348 127.441-16.8945Q124.512-8.1543 119.141-0.854492Q113.77 6.44531 106.494 11.792Q99.2188 17.1387 90.4785 20.0928Q81.7383 23.0469 72.0703 23.0469Z"/>
   <path class="multicolor-0:systemOrangeColor hierarchical-1:primary SFSymbolsPreviewFF9500" d="M58.6914 6.15234Q60.7422 6.15234 62.085 5.00488Q63.4277 3.85742 63.3301 1.80664L62.5977-39.1113Q62.5977-41.1133 64.209-41.8457Q67.6758-43.5059 68.9209-45.7764Q70.166-48.0469 69.9707-52.6855L68.8965-74.5605Q68.75-76.5625 66.748-76.5625Q64.6973-76.5625 64.6973-74.3652L64.8438-53.1738Q64.8438-51.0742 63.1348-51.0742Q62.3047-51.0742 61.7432-51.5869Q61.1816-52.0996 61.1816-53.0762L60.8887-75.0488Q60.8887-77.0508 58.6914-77.0508Q56.543-77.0508 56.543-75.0488L56.3477-53.0762Q56.3477-52.0996 55.7617-51.5869Q55.1758-51.0742 54.4434-51.0742Q52.5391-51.0742 52.5391-53.1738L52.7344-74.3652Q52.7344-76.5625 50.6348-76.5625Q48.6328-76.5625 48.4863-74.5605L47.5586-52.6855Q47.3633-48.0469 48.5596-45.7764Q49.7559-43.5059 53.2715-41.8457Q54.1992-41.4062 54.4922-40.8203Q54.7852-40.2344 54.7852-39.1113L54.0527 1.80664Q54.0039 3.85742 55.3711 5.00488Q56.7383 6.15234 58.6914 6.15234ZM82.2754-22.4121L81.1035 0.830078Q80.957 3.61328 82.4219 4.88281Q83.8867 6.15234 85.8398 6.15234Q87.8418 6.15234 89.209 4.98047Q90.5762 3.80859 90.5762 1.70898L90.5762-74.9023Q90.5762-76.0742 90.0146-76.5625Q89.4531-77.0508 88.623-77.0508Q87.6953-77.0508 87.1094-76.6113Q86.5234-76.1719 85.9375-75.293Q82.959-71.1426 80.8594-65.21Q78.7598-59.2773 77.6611-52.0752Q76.5625-44.873 76.5625-36.9141L76.5625-33.9844Q76.5625-31.6895 77.2705-30.4199Q77.9785-29.1504 79.2969-28.0762L80.5176-27.0508Q81.3965-26.3184 81.8604-25.2197Q82.3242-24.1211 82.2754-22.4121Z"/>
  </g>
  <g id="Black-M" transform="matrix(1 0 0 1 2871.32 1126)">
   <path class="multicolor-0:systemOrangeColor hierarchical-0:secondary SFSymbolsPreviewFF9500" d="M62.0605 18.1152Q73.0957 18.1152 82.7637 13.9648Q92.4316 9.81445 99.7559 2.46582Q107.08-4.88281 111.255-14.5264Q115.43-24.1699 115.43-35.2051Q115.43-46.2402 111.255-55.8838Q107.08-65.5273 99.7559-72.876Q92.4316-80.2246 82.7637-84.375Q73.0957-88.5254 62.0605-88.5254Q51.0742-88.5254 41.4062-84.375Q31.7383-80.2246 24.3896-72.876Q17.041-65.5273 12.8906-55.8838Q8.74023-46.2402 8.74023-35.2051Q8.74023-24.1699 12.8906-14.5264Q17.041-4.88281 24.3896 2.46582Q31.7383 9.81445 41.4062 13.9648Q51.0742 18.1152 62.0605 18.1152ZM62.0605 0.732422Q54.6387 0.732422 48.1201-2.05078Q41.6016-4.83398 36.6455-9.76562Q31.6895-14.6973 28.9062-21.2158Q26.123-27.7344 26.123-35.2051Q26.123-42.6758 28.9062-49.1943Q31.6895-55.7129 36.6455-60.6445Q41.6016-65.5762 48.1201-68.3594Q54.6387-71.1426 62.0605-71.1426Q69.5312-71.1426 76.0498-68.3594Q82.5684-65.5762 87.5-60.6445Q92.4316-55.7129 95.2393-49.1943Q98.0469-42.6758 98.0469-35.2051Q98.0469-27.7344 95.2393-21.2158Q92.4316-14.6973 87.5-9.76562Q82.5684-4.83398 76.0498-2.05078Q69.5312 0.732422 62.0605 0.732422Z"/>
   <path class="multicolor-0:systemOrangeColor hierarchical-1:primary SFSymbolsPreviewFF9500" d="M53.125-7.95898Q54.8828-7.95898 55.8594-8.91113Q56.8359-9.86328 56.7871-11.377L56.3477-36.8652Q56.3477-38.2324 57.373-38.8184Q59.9121-39.9902 61.1084-41.6748Q62.3047-43.3594 62.1094-47.0215L61.4258-59.9609Q61.3281-62.1582 59.4238-62.1582Q57.5684-62.1582 57.5684-59.9121L57.7637-47.4121Q57.7637-45.9473 56.5918-45.9473Q55.3223-45.9473 55.3223-47.3633L55.127-60.4004Q55.127-62.5 53.125-62.5Q51.2207-62.5 51.2207-60.4004L51.0254-47.3633Q51.0254-45.9473 49.707-45.9473Q48.584-45.9473 48.584-47.4121L48.8281-59.9121Q48.8281-62.1582 46.875-62.1582Q44.9707-62.1582 44.8242-59.9609L44.2383-47.0215Q44.043-43.3594 45.2148-41.6748Q46.3867-39.9902 48.877-38.8184Q49.5605-38.4766 49.7803-38.1104Q50-37.7441 50-36.8652L49.5117-11.377Q49.4629-9.81445 50.4639-8.88672Q51.4648-7.95898 53.125-7.95898ZM69.873-27.4902L69.5312-11.377Q69.4824-9.81445 70.5078-8.88672Q71.5332-7.95898 73.2422-7.95898Q74.9512-7.95898 75.9033-8.88672Q76.8555-9.81445 76.8555-11.377L76.8555-60.5957Q76.8555-61.4258 76.3672-61.9629Q75.8789-62.5 75.0488-62.5Q73.8281-62.5 72.7051-60.9375Q70.8008-58.3984 69.2871-54.1748Q67.7734-49.9512 66.8701-45.1904Q65.9668-40.4297 65.9668-36.1816L65.9668-34.6191Q65.9668-33.252 66.4062-32.3242Q66.8457-31.3965 68.2129-30.6152L68.75-30.2734Q69.9707-29.541 69.873-27.4902Z"/>
  </g>
  <g id="Heavy-M" transform="matrix(1 0 0 1 2575.43 1126)">
   <path class="multicolor-0:systemOrangeColor hierarchical-0:secondary SFSymbolsPreviewFF9500" d="M61.2305 17.2852Q72.0703 17.2852 81.5918 13.1836Q91.1133 9.08203 98.3154 1.85547Q105.518-5.37109 109.644-14.8682Q113.77-24.3652 113.77-35.2051Q113.77-46.0449 109.644-55.542Q105.518-65.0391 98.3154-72.29Q91.1133-79.541 81.5918-83.6182Q72.0703-87.6953 61.2305-87.6953Q50.4395-87.6953 40.918-83.6182Q31.3965-79.541 24.1699-72.29Q16.9434-65.0391 12.8418-55.542Q8.74023-46.0449 8.74023-35.2051Q8.74023-24.3652 12.8418-14.8682Q16.9434-5.37109 24.1699 1.85547Q31.3965 9.08203 40.918 13.1836Q50.4395 17.2852 61.2305 17.2852ZM61.2305 2.05078Q53.5156 2.05078 46.7529-0.854492Q39.9902-3.75977 34.8633-8.8623Q29.7363-13.9648 26.8555-20.7275Q23.9746-27.4902 23.9746-35.2051Q23.9746-42.9688 26.8555-49.7314Q29.7363-56.4941 34.8633-61.5967Q39.9902-66.6992 46.7529-69.5801Q53.5156-72.4609 61.2305-72.4609Q68.9453-72.4609 75.708-69.5801Q82.4707-66.6992 87.5977-61.5967Q92.7246-56.4941 95.6299-49.7314Q98.5352-42.9688 98.5352-35.2051Q98.5352-27.4902 95.6299-20.7275Q92.7246-13.9648 87.6221-8.8623Q82.5195-3.75977 75.7568-0.854492Q68.9941 2.05078 61.2305 2.05078Z"/>
   <path class="multicolor-0:systemOrangeColor hierarchical-1:primary SFSymbolsPreviewFF9500" d="M51.9531-6.83594Q53.7109-6.83594 54.7119-7.78809Q55.7129-8.74023 55.6641-10.3027L55.1758-37.0605Q55.1758-38.4766 56.25-39.0625Q58.8379-40.2344 60.0586-41.9189Q61.2793-43.6035 61.084-47.2168L60.3516-61.1328Q60.2539-63.2324 58.3984-63.2324Q56.543-63.2324 56.543-61.084L56.7383-47.6074Q56.7383-46.1426 55.5176-46.1426Q54.1504-46.1426 54.1504-47.5586L53.9551-61.5723Q53.9551-63.5742 51.9531-63.5742Q50.0977-63.5742 50.0977-61.5723L49.8535-47.5586Q49.8535-46.1426 48.4863-46.1426Q47.2656-46.1426 47.2656-47.6074L47.5098-61.084Q47.5098-63.2324 45.6055-63.2324Q43.7012-63.2324 43.6035-61.1328L42.9688-47.2168Q42.7734-43.6035 43.9453-41.9189Q45.1172-40.2344 47.7051-39.0625Q48.3398-38.7207 48.584-38.3301Q48.8281-37.9395 48.8281-37.0605L48.3398-10.3027Q48.291-8.69141 49.292-7.76367Q50.293-6.83594 51.9531-6.83594ZM69.2871-27.2949L68.8965-10.3516Q68.8477-8.74023 69.873-7.78809Q70.8984-6.83594 72.6074-6.83594Q74.3164-6.83594 75.2686-7.76367Q76.2207-8.69141 76.2207-10.2539L76.2207-61.6699Q76.2207-62.5488 75.708-63.0615Q75.1953-63.5742 74.4141-63.5742Q73.1445-63.5742 71.9727-61.9629Q70.0195-59.2773 68.457-54.9561Q66.8945-50.6348 65.9912-45.7031Q65.0879-40.7715 65.0879-36.2305L65.0879-34.6191Q65.0879-33.252 65.5518-32.2754Q66.0156-31.2988 67.334-30.5664L68.1152-30.0293Q69.3848-29.1992 69.2871-27.2949Z"/>
  </g>
  <g id="Bold-M" transform="matrix(1 0 0 1 2279.65 1126)">
   <path class="multicolor-0:systemOrangeColor hierarchical-0:secondary SFSymbolsPreviewFF9500" d="M60.3027 16.3574Q70.9473 16.3574 80.2734 12.3291Q89.5996 8.30078 96.7041 1.17188Q103.809-5.95703 107.861-15.2832Q111.914-24.6094 111.914-35.2539Q111.914-45.8496 107.861-55.1758Q103.809-64.502 96.7041-71.6309Q89.5996-78.7598 80.249-82.7881Q70.8984-86.8164 60.3027-86.8164Q49.707-86.8164 40.3564-82.7881Q31.0059-78.7598 23.9014-71.6309Q16.7969-64.502 12.7686-55.1758Q8.74023-45.8496 8.74023-35.2539Q8.74023-24.6094 12.7686-15.2832Q16.7969-5.95703 23.9258 1.17188Q31.0547 8.30078 40.3809 12.3291Q49.707 16.3574 60.3027 16.3574ZM60.3027 3.51562Q52.2949 3.51562 45.2637 0.488281Q38.2324-2.53906 32.9102-7.83691Q27.5879-13.1348 24.6094-20.166Q21.6309-27.1973 21.6309-35.2539Q21.6309-43.3105 24.6094-50.3174Q27.5879-57.3242 32.9102-62.6465Q38.2324-67.9688 45.2393-70.9717Q52.2461-73.9746 60.3027-73.9746Q68.3594-73.9746 75.3662-70.9717Q82.373-67.9688 87.6953-62.6465Q93.0176-57.3242 96.0449-50.3174Q99.0723-43.3105 99.0723-35.2539Q99.0723-27.1973 96.0693-20.166Q93.0664-13.1348 87.7441-7.83691Q82.4219-2.53906 75.3906 0.488281Q68.3594 3.51562 60.3027 3.51562Z"/>
   <path class="multicolor-0:systemOrangeColor hierarchical-1:primary SFSymbolsPreviewFF9500" d="M50.6836-5.61523Q52.4414-5.61523 53.4424-6.56738Q54.4434-7.51953 54.3945-9.08203L53.9062-37.3535Q53.9062-38.7695 55.0293-39.3555Q57.666-40.5273 58.8867-42.1875Q60.1074-43.8477 59.9121-47.5098L59.1797-62.4023Q59.082-64.502 57.2754-64.502Q55.4688-64.502 55.4688-62.4023L55.6641-47.9004Q55.6641-46.3379 54.2969-46.3379Q52.832-46.3379 52.832-47.8027L52.6367-62.8418Q52.6367-64.8438 50.6836-64.8438Q48.8281-64.8438 48.8281-62.8418L48.584-47.8027Q48.584-46.3379 47.1191-46.3379Q45.8008-46.3379 45.8008-47.9004L46.0449-62.4023Q46.0449-64.502 44.1895-64.502Q42.334-64.502 42.2363-62.4023L41.5527-47.5098Q41.3574-43.8477 42.5537-42.1875Q43.75-40.5273 46.3867-39.3555Q47.0215-39.0137 47.29-38.5742Q47.5586-38.1348 47.5586-37.3535L47.0703-9.08203Q47.0215-7.4707 48.0225-6.54297Q49.0234-5.61523 50.6836-5.61523ZM68.6523-27.1484L68.1641-9.17969Q68.1152-7.51953 69.1406-6.56738Q70.166-5.61523 71.875-5.61523Q73.584-5.61523 74.5605-6.51855Q75.5371-7.42188 75.5371-9.0332L75.5371-62.8418Q75.5371-63.8184 75-64.3311Q74.4629-64.8438 73.6816-64.8438Q72.3633-64.8438 71.1914-63.1348Q69.1406-60.3027 67.5537-55.8594Q65.9668-51.416 65.0391-46.3135Q64.1113-41.2109 64.1113-36.3281L64.1113-34.6191Q64.1113-33.2031 64.624-32.2266Q65.1367-31.25 66.3086-30.4688L67.3828-29.7363Q68.7012-28.8574 68.6523-27.1484Z"/>
  </g>
  <g id="Semibold-M" transform="matrix(1 0 0 1 1983.6 1126)">
   <path class="multicolor-0:systemOrangeColor hierarchical-0:secondary SFSymbolsPreviewFF9500" d="M59.668 15.6738Q70.1172 15.6738 79.3457 11.6943Q88.5742 7.71484 95.6055 0.683594Q102.637-6.34766 106.616-15.5518Q110.596-24.7559 110.596-35.2539Q110.596-45.7031 106.616-54.9072Q102.637-64.1113 95.6055-71.1426Q88.5742-78.1738 79.3457-82.1777Q70.1172-86.1816 59.6191-86.1816Q49.1699-86.1816 39.9658-82.1777Q30.7617-78.1738 23.7305-71.1426Q16.6992-64.1113 12.7197-54.9072Q8.74023-45.7031 8.74023-35.2539Q8.74023-24.7559 12.7197-15.5518Q16.6992-6.34766 23.7305 0.683594Q30.7617 7.71484 39.9902 11.6943Q49.2188 15.6738 59.668 15.6738ZM59.668 4.49219Q51.416 4.49219 44.2139 1.41602Q37.0117-1.66016 31.543-7.10449Q26.0742-12.5488 23.0225-19.751Q19.9707-26.9531 19.9707-35.2539Q19.9707-43.5059 23.0225-50.708Q26.0742-57.9102 31.5186-63.3789Q36.9629-68.8477 44.165-71.8994Q51.3672-74.9512 59.6191-74.9512Q67.9199-74.9512 75.1221-71.8994Q82.3242-68.8477 87.7686-63.3789Q93.2129-57.9102 96.3135-50.708Q99.4141-43.5059 99.4141-35.2539Q99.4141-26.9531 96.3379-19.751Q93.2617-12.5488 87.8174-7.10449Q82.373-1.66016 75.1465 1.41602Q67.9199 4.49219 59.668 4.49219Z"/>
   <path class="multicolor-0:systemOrangeColor hierarchical-1:primary SFSymbolsPreviewFF9500" d="M49.7559-4.78516Q51.5137-4.78516 52.5146-5.71289Q53.5156-6.64062 53.4668-8.25195L52.9785-37.5Q52.9785-38.916 54.1504-39.502Q56.7871-40.6738 58.0322-42.3584Q59.2773-44.043 59.082-47.6562L58.3008-63.2812Q58.2031-65.332 56.3965-65.332Q54.6387-65.332 54.6387-63.2812L54.834-48.0469Q54.834-46.4844 53.3691-46.4844Q51.8555-46.4844 51.8555-47.9492L51.6602-63.7207Q51.6602-65.6738 49.7559-65.6738Q47.9004-65.6738 47.9004-63.7207L47.6562-47.9492Q47.6562-46.4844 46.1426-46.4844Q44.7266-46.4844 44.7266-48.0469L44.9707-63.2812Q44.9707-65.332 43.1152-65.332Q41.3086-65.332 41.2109-63.2812L40.4785-47.6562Q40.332-44.043 41.5283-42.3584Q42.7246-40.6738 45.4102-39.502Q46.0449-39.209 46.3135-38.7451Q46.582-38.2812 46.582-37.5L46.0938-8.25195Q46.0449-6.64062 47.0459-5.71289Q48.0469-4.78516 49.7559-4.78516ZM68.1152-27.002L67.5781-8.34961Q67.5293-6.64062 68.5547-5.71289Q69.5801-4.78516 71.2891-4.78516Q73.0469-4.78516 74.0234-5.66406Q75-6.54297 75-8.1543L75-63.6719Q75-64.6484 74.4385-65.1611Q73.877-65.6738 73.0957-65.6738Q71.7773-65.6738 70.6055-63.916Q68.457-60.9863 66.8457-56.4697Q65.2344-51.9531 64.3066-46.7041Q63.3789-41.4551 63.3789-36.3281L63.3789-34.5703Q63.3789-33.2031 63.916-32.1777Q64.4531-31.1523 65.5762-30.4199L66.7969-29.541Q68.2129-28.6133 68.1152-27.002Z"/>
  </g>
  <g id="Medium-M" transform="matrix(1 0 0 1 1687.38 1126)">
   <path class="multicolor-0:systemOrangeColor hierarchical-0:secondary SFSymbolsPreviewFF9500" d="M59.1797 15.1855Q69.5312 15.1855 78.6621 11.2305Q87.793 7.27539 94.751 0.317383Q101.709-6.64062 105.664-15.7715Q109.619-24.9023 109.619-35.2539Q109.619-45.6055 105.664-54.7363Q101.709-63.8672 94.751-70.8252Q87.793-77.7832 78.6377-81.7383Q69.4824-85.6934 59.1309-85.6934Q48.7793-85.6934 39.6484-81.7383Q30.5176-77.7832 23.584-70.8252Q16.6504-63.8672 12.6953-54.7363Q8.74023-45.6055 8.74023-35.2539Q8.74023-24.9023 12.6953-15.7715Q16.6504-6.64062 23.6084 0.317383Q30.5664 7.27539 39.6973 11.2305Q48.8281 15.1855 59.1797 15.1855ZM59.1797 5.27344Q50.7324 5.27344 43.4082 2.12402Q36.084-1.02539 30.5176-6.5918Q24.9512-12.1582 21.8262-19.4824Q18.7012-26.8066 18.7012-35.2539Q18.7012-43.7012 21.8262-51.0254Q24.9512-58.3496 30.4932-63.916Q36.0352-69.4824 43.3838-72.6074Q50.7324-75.7324 59.1309-75.7324Q67.5781-75.7324 74.9023-72.6074Q82.2266-69.4824 87.8174-63.916Q93.4082-58.3496 96.5576-51.0254Q99.707-43.7012 99.707-35.2539Q99.707-26.8066 96.582-19.4824Q93.457-12.1582 87.8906-6.5918Q82.3242-1.02539 74.9756 2.12402Q67.627 5.27344 59.1797 5.27344Z"/>
   <path class="multicolor-0:systemOrangeColor hierarchical-1:primary SFSymbolsPreviewFF9500" d="M49.0723-4.10156Q50.8301-4.10156 51.8311-5.0293Q52.832-5.95703 52.7832-7.61719L52.2949-37.6465Q52.2949-39.0625 53.4668-39.6484Q56.2012-40.8203 57.4219-42.4805Q58.6426-44.1406 58.4473-47.8027L57.666-63.9648Q57.5684-65.9668 55.8105-65.9668Q54.0527-65.9668 54.0527-63.9648L54.248-48.1934Q54.248-46.582 52.7344-46.582Q51.2207-46.582 51.2207-48.0957L50.9766-64.4043Q50.9766-66.3086 49.0723-66.3086Q47.2656-66.3086 47.2656-64.4043L46.9727-48.0957Q46.9727-46.582 45.4102-46.582Q43.9941-46.582 43.9941-48.1934L44.1895-63.9648Q44.1895-65.9668 42.3828-65.9668Q40.625-65.9668 40.4785-63.9648L39.7461-47.8027Q39.5996-44.1406 40.8203-42.4805Q42.041-40.8203 44.7266-39.6484Q45.3613-39.3555 45.6299-38.8672Q45.8984-38.3789 45.8984-37.6465L45.4102-7.61719Q45.3613-5.95703 46.3623-5.0293Q47.3633-4.10156 49.0723-4.10156ZM67.7734-26.9043L67.1875-7.71484Q67.1387-6.00586 68.1641-5.05371Q69.1895-4.10156 70.8984-4.10156Q72.6562-4.10156 73.6572-5.00488Q74.6582-5.9082 74.6582-7.4707L74.6582-64.2578Q74.6582-65.332 74.0723-65.8203Q73.4863-66.3086 72.7051-66.3086Q71.3867-66.3086 70.166-64.5508Q68.0176-61.5234 66.3818-56.9336Q64.7461-52.3438 63.8184-46.9971Q62.8906-41.6504 62.8906-36.377L62.8906-34.5703Q62.8906-33.1543 63.4277-32.1289Q63.9648-31.1035 65.0391-30.3711L66.4062-29.3945Q67.8711-28.418 67.7734-26.9043Z"/>
  </g>
  <g id="Regular-M" transform="matrix(1 0 0 1 1391.3 1126)">
   <path class="multicolor-0:systemOrangeColor hierarchical-0:secondary SFSymbolsPreviewFF9500" d="M58.5449 14.5508Q68.75 14.5508 77.7588 10.6445Q86.7676 6.73828 93.6523-0.146484Q100.537-7.03125 104.443-16.04Q108.35-25.0488 108.35-35.2539Q108.35-45.459 104.443-54.4678Q100.537-63.4766 93.6523-70.3613Q86.7676-77.2461 77.7344-81.1523Q68.7012-85.0586 58.4961-85.0586Q48.291-85.0586 39.2822-81.1523Q30.2734-77.2461 23.4131-70.3613Q16.5527-63.4766 12.6465-54.4678Q8.74023-45.459 8.74023-35.2539Q8.74023-25.0488 12.6465-16.04Q16.5527-7.03125 23.4375-0.146484Q30.3223 6.73828 39.3311 10.6445Q48.3398 14.5508 58.5449 14.5508ZM58.5449 6.25Q49.9023 6.25 42.3828 3.02734Q34.8633-0.195312 29.1748-5.88379Q23.4863-11.5723 20.2881-19.0918Q17.0898-26.6113 17.0898-35.2539Q17.0898-43.8965 20.2881-51.416Q23.4863-58.9355 29.1504-64.6484Q34.8145-70.3613 42.334-73.5596Q49.8535-76.7578 58.4961-76.7578Q67.1387-76.7578 74.6582-73.5596Q82.1777-70.3613 87.8906-64.6484Q93.6035-58.9355 96.8262-51.416Q100.049-43.8965 100.049-35.2539Q100.049-26.6113 96.8506-19.0918Q93.6523-11.5723 87.9639-5.88379Q82.2754-0.195312 74.7314 3.02734Q67.1875 6.25 58.5449 6.25Z"/>
   <path class="multicolor-0:systemOrangeColor hierarchical-1:primary SFSymbolsPreviewFF9500" d="M48.1934-3.27148Q49.9512-3.27148 50.9521-4.19922Q51.9531-5.12695 51.9043-6.78711L51.416-37.793Q51.416-39.2578 52.6367-39.8438Q55.3711-41.0156 56.6162-42.6758Q57.8613-44.3359 57.666-47.9492L56.8359-64.8438Q56.7383-66.7969 55.0293-66.7969Q53.2715-66.7969 53.2715-64.8438L53.4668-48.3398Q53.4668-46.7285 51.9043-46.7285Q50.293-46.7285 50.293-48.2422L50.0488-65.2832Q50.0488-67.1387 48.1934-67.1387Q46.3867-67.1387 46.3867-65.2832L46.0938-48.2422Q46.0938-46.7285 44.4824-46.7285Q42.9688-46.7285 42.9688-48.3398L43.1641-64.8438Q43.1641-66.7969 41.4062-66.7969Q39.6484-66.7969 39.5508-64.8438L38.7695-47.9492Q38.623-44.3359 39.8438-42.6758Q41.0645-41.0156 43.7988-39.8438Q44.4336-39.5508 44.7266-39.0381Q45.0195-38.5254 45.0195-37.793L44.5312-6.78711Q44.4824-5.12695 45.4834-4.19922Q46.4844-3.27148 48.1934-3.27148ZM67.334-26.7578L66.6992-6.93359Q66.6504-5.17578 67.6758-4.22363Q68.7012-3.27148 70.4102-3.27148Q72.168-3.27148 73.1689-4.15039Q74.1699-5.0293 74.1699-6.64062L74.1699-65.0879Q74.1699-66.1621 73.5596-66.6504Q72.9492-67.1387 72.2168-67.1387Q70.8496-67.1387 69.6289-65.332Q67.3828-62.207 65.7227-57.5439Q64.0625-52.8809 63.1348-47.4121Q62.207-41.9434 62.207-36.4258L62.207-34.5703Q62.207-33.1543 62.7686-32.1045Q63.3301-31.0547 64.3555-30.3223L65.918-29.1992Q67.3828-28.1738 67.334-26.7578Z"/>
  </g>
  <g id="Light-M" transform="matrix(1 0 0 1 1095.42 1126)">
   <path class="multicolor-0:systemOrangeColor hierarchical-0:secondary SFSymbolsPreviewFF9500" d="M57.7148 13.7207Q67.7734 13.7207 76.6357 9.8877Q85.498 6.05469 92.2607-0.708008Q99.0234-7.4707 102.856-16.333Q106.689-25.1953 106.689-35.2539Q106.689-45.3125 102.856-54.1748Q99.0234-63.0371 92.2607-69.7998Q85.498-76.5625 76.6113-80.3955Q67.7246-84.2285 57.666-84.2285Q47.6074-84.2285 38.7451-80.3955Q29.8828-76.5625 23.1445-69.7998Q16.4062-63.0371 12.5732-54.1748Q8.74023-45.3125 8.74023-35.2539Q8.74023-25.1953 12.5732-16.333Q16.4062-7.4707 23.1689-0.708008Q29.9316 6.05469 38.7939 9.8877Q47.6562 13.7207 57.7148 13.7207ZM57.7148 7.37305Q48.877 7.37305 41.1377 4.07715Q33.3984 0.78125 27.5391-5.07812Q21.6797-10.9375 18.3838-18.6768Q15.0879-26.416 15.0879-35.2539Q15.0879-44.0918 18.3838-51.8311Q21.6797-59.5703 27.5391-65.4541Q33.3984-71.3379 41.1133-74.6338Q48.8281-77.9297 57.666-77.9297Q66.5527-77.9297 74.2676-74.6338Q81.9824-71.3379 87.8662-65.4541Q93.75-59.5703 97.0703-51.8311Q100.391-44.0918 100.391-35.2539Q100.391-26.416 97.0703-18.6768Q93.75-10.9375 87.915-5.07812Q82.0801 0.78125 74.3408 4.07715Q66.6016 7.37305 57.7148 7.37305Z"/>
   <path class="multicolor-0:systemOrangeColor hierarchical-1:primary SFSymbolsPreviewFF9500" d="M47.3633-3.27148Q49.0723-3.27148 50.0977-4.1748Q51.123-5.07812 51.0742-6.73828L50.5371-37.9395Q50.5371-39.4531 51.7578-40.0391Q54.4922-41.2109 55.6396-42.9199Q56.7871-44.6289 56.5918-48.1934L55.8105-65.1367Q55.7129-66.9434 54.0527-66.9434Q52.3438-66.9434 52.3438-65.0879L52.4902-48.584Q52.4902-46.9727 50.9766-46.9727Q49.4141-46.9727 49.4141-48.5352L49.1699-65.5273Q49.1699-67.334 47.3633-67.334Q45.6055-67.334 45.6055-65.5273L45.3613-48.5352Q45.3613-46.9727 43.7988-46.9727Q42.2852-46.9727 42.2852-48.584L42.4805-65.0879Q42.4805-66.9434 40.7715-66.9434Q39.0625-66.9434 38.9648-65.1367L38.1836-48.1934Q38.0371-44.6289 39.1846-42.9199Q40.332-41.2109 43.0176-40.0391Q43.7012-39.6973 43.9697-39.209Q44.2383-38.7207 44.2383-37.9395L43.75-6.73828Q43.7012-5.07812 44.7021-4.1748Q45.7031-3.27148 47.3633-3.27148ZM66.2109-26.3184L65.5273-7.08008Q65.4785-5.17578 66.5283-4.22363Q67.5781-3.27148 69.2383-3.27148Q70.9473-3.27148 71.9482-4.15039Q72.9492-5.0293 72.9492-6.64062L72.9492-65.3809Q72.9492-66.4062 72.3877-66.8701Q71.8262-67.334 71.1426-67.334Q69.8242-67.334 68.7012-65.625Q66.4551-62.5 64.7949-57.8613Q63.1348-53.2227 62.2314-47.7051Q61.3281-42.1875 61.3281-36.4746L61.3281-34.4727Q61.3281-32.959 61.8896-31.9336Q62.4512-30.9082 63.4766-30.127L64.8438-29.1504Q66.3086-28.0273 66.2109-26.3184Z"/>
  </g>
  <g id="Thin-M" transform="matrix(1 0 0 1 799.782 1126)">
   <path class="multicolor-0:systemOrangeColor hierarchical-0:secondary SFSymbolsPreviewFF9500" d="M56.5918 12.5977Q66.5039 12.5977 75.1709 8.88672Q83.8379 5.17578 90.4297-1.44043Q97.0215-8.05664 100.781-16.7236Q104.541-25.3906 104.541-35.2539Q104.541-45.1172 100.781-53.7842Q97.0215-62.4512 90.4297-69.0674Q83.8379-75.6836 75.1709-79.3945Q66.5039-83.1055 56.5918-83.1055Q46.7285-83.1055 38.0615-79.3945Q29.3945-75.6836 22.8271-69.0674Q16.2598-62.4512 12.5-53.7842Q8.74023-45.1172 8.74023-35.2539Q8.74023-25.3906 12.4756-16.7236Q16.2109-8.05664 22.8027-1.44043Q29.3945 5.17578 38.0859 8.88672Q46.7773 12.5977 56.5918 12.5977ZM56.5918 8.88672Q47.4609 8.88672 39.4775 5.44434Q31.4941 2.00195 25.415-4.05273Q19.3359-10.1074 15.918-18.1152Q12.5-26.123 12.5-35.2539Q12.5-44.3848 15.918-52.3926Q19.3359-60.4004 25.415-66.4795Q31.4941-72.5586 39.4775-76.001Q47.4609-79.4434 56.5918-79.4434Q65.7715-79.4434 73.7549-76.001Q81.7383-72.5586 87.8174-66.4795Q93.8965-60.4004 97.3389-52.3926Q100.781-44.3848 100.781-35.2539Q100.781-26.123 97.3633-18.1152Q93.9453-10.1074 87.8662-4.05273Q81.7871 2.00195 73.7793 5.44434Q65.7715 8.88672 56.5918 8.88672Z"/>
   <path class="multicolor-0:systemOrangeColor hierarchical-1:primary SFSymbolsPreviewFF9500" d="M46.2402-3.17383Q47.8516-3.17383 48.9014-4.07715Q49.9512-4.98047 49.9023-6.54297L49.3164-38.0859Q49.3164-39.5996 50.5859-40.1855Q53.2715-41.4551 54.3213-43.1885Q55.3711-44.9219 55.1758-48.4863L54.3457-65.4785Q54.248-67.1387 52.6855-67.1387Q51.0254-67.1387 51.0254-65.332L51.123-48.877Q51.123-47.2656 49.707-47.2656Q48.1934-47.2656 48.1934-48.8281L47.9492-65.8203Q47.9492-67.4805 46.2402-67.4805Q44.5312-67.4805 44.5312-65.8203L44.3359-48.8281Q44.3359-47.2656 42.8223-47.2656Q41.3574-47.2656 41.3574-48.877L41.5039-65.332Q41.5039-67.1387 39.8438-67.1387Q38.2324-67.1387 38.1348-65.4785L37.3535-48.4863Q37.2559-44.9219 38.2568-43.1885Q39.2578-41.4551 41.9434-40.1855Q42.6758-39.8926 42.9199-39.4043Q43.1641-38.916 43.1641-38.0859L42.627-6.54297Q42.5781-4.98047 43.6035-4.07715Q44.6289-3.17383 46.2402-3.17383ZM64.7461-25.6836L63.916-7.17773Q63.8184-5.12695 64.917-4.15039Q66.0156-3.17383 67.5781-3.17383Q69.2383-3.17383 70.2637-4.07715Q71.2891-4.98047 71.2891-6.5918L71.2891-65.7227Q71.2891-66.6504 70.8252-67.0654Q70.3613-67.4805 69.6289-67.4805Q68.457-67.4805 67.4316-65.9668Q65.1367-62.793 63.501-58.1787Q61.8652-53.5645 60.9863-47.998Q60.1074-42.4316 60.1074-36.4746L60.1074-34.3262Q60.1074-32.6172 60.6689-31.6406Q61.2305-30.6641 62.2559-29.834L63.3301-28.9551Q64.7949-27.7832 64.7461-25.6836Z"/>
  </g>
  <g id="Ultralight-M" transform="matrix(1 0 0 1 503.632 1126)">
   <path class="multicolor-0:systemOrangeColor hierarchical-0:secondary SFSymbolsPreviewFF9500" d="M56.0547 12.0605Q65.8203 12.0605 74.3896 8.37402Q82.959 4.6875 89.4775-1.83105Q95.9961-8.34961 99.707-16.9189Q103.418-25.4883 103.418-35.2539Q103.418-45.0195 99.707-53.5889Q95.9961-62.1582 89.4775-68.6768Q82.959-75.1953 74.3896-78.8818Q65.8203-82.5684 56.0547-82.5684Q46.2891-82.5684 37.7197-78.8818Q29.1504-75.1953 22.6562-68.6768Q16.1621-62.1582 12.4512-53.5889Q8.74023-45.0195 8.74023-35.2539Q8.74023-25.4883 12.4268-16.9189Q16.1133-8.34961 22.6318-1.83105Q29.1504 4.6875 37.7197 8.37402Q46.2891 12.0605 56.0547 12.0605ZM56.0547 9.66797Q46.7773 9.66797 38.6475 6.17676Q30.5176 2.68555 24.3164-3.49121Q18.1152-9.66797 14.624-17.8223Q11.1328-25.9766 11.1328-35.2539Q11.1328-44.5312 14.624-52.6855Q18.1152-60.8398 24.3164-67.041Q30.5176-73.2422 38.6475-76.7334Q46.7773-80.2246 56.0547-80.2246Q65.3809-80.2246 73.5107-76.7334Q81.6406-73.2422 87.8174-67.041Q93.9941-60.8398 97.5098-52.6855Q101.025-44.5312 101.025-35.2539Q101.025-25.9766 97.5098-17.8223Q93.9941-9.66797 87.8174-3.49121Q81.6406 2.68555 73.5107 6.17676Q65.3809 9.66797 56.0547 9.66797Z"/>
   <path class="multicolor-0:systemOrangeColor hierarchical-1:primary SFSymbolsPreviewFF9500" d="M45.7031-3.17383Q47.2656-3.17383 48.3154-4.05273Q49.3652-4.93164 49.3164-6.54297L48.7305-38.2324Q48.7305-39.7461 50-40.332Q52.6367-41.6016 53.6377-43.3594Q54.6387-45.1172 54.4434-48.6816L53.6621-65.6738Q53.5645-67.2363 52.002-67.2363Q50.3906-67.2363 50.3906-65.5273L50.4883-49.0723Q50.4883-47.4609 49.1211-47.4609Q47.6074-47.4609 47.6074-49.0234L47.3633-66.0156Q47.3633-67.627 45.7031-67.627Q44.043-67.627 44.043-66.0156L43.8477-49.0234Q43.8477-47.4609 42.334-47.4609Q40.8691-47.4609 40.8691-49.0723L41.0156-65.5273Q41.0156-67.2363 39.4043-67.2363Q37.8418-67.2363 37.7441-65.6738L36.9629-48.6816Q36.8652-45.1172 37.8174-43.3594Q38.7695-41.6016 41.4551-40.332Q42.1875-39.9902 42.4072-39.5264Q42.627-39.0625 42.627-38.2324L42.0898-6.54297Q42.041-4.93164 43.0908-4.05273Q44.1406-3.17383 45.7031-3.17383ZM63.9648-25.3906L63.1348-7.27539Q63.0371-5.12695 64.1602-4.15039Q65.2832-3.17383 66.7969-3.17383Q68.4082-3.17383 69.458-4.07715Q70.5078-4.98047 70.5078-6.5918L70.5078-65.918Q70.5078-66.7969 70.0439-67.2119Q69.5801-67.627 68.8965-67.627Q67.7734-67.627 66.8457-66.2109Q64.5508-62.9883 62.915-58.3984Q61.2793-53.8086 60.4004-48.2178Q59.5215-42.627 59.5215-36.5234L59.5215-34.2773Q59.5215-32.5195 60.0586-31.543Q60.5957-30.5664 61.6211-29.7363L62.5977-28.9551Q64.0625-27.7344 63.9648-25.3906Z"/>
  </g>
  <g id="Black-S" transform="matrix(1 0 0 1 2884.57 696)">
   <path class="multicolor-0:systemOrangeColor hierarchical-0:secondary SFSymbolsPreviewFF9500" d="M48.8281 6.78711Q57.5195 6.78711 65.1123 3.51562Q72.7051 0.244141 78.4912-5.54199Q84.2773-11.3281 87.5488-18.9209Q90.8203-26.5137 90.8203-35.2051Q90.8203-43.8965 87.5488-51.4893Q84.2773-59.082 78.4912-64.8682Q72.7051-70.6543 65.1123-73.9258Q57.5195-77.1973 48.8281-77.1973Q40.1367-77.1973 32.5439-73.9258Q24.9512-70.6543 19.165-64.8682Q13.3789-59.082 10.1074-51.4893Q6.83594-43.8965 6.83594-35.2051Q6.83594-26.5137 10.1074-18.9209Q13.3789-11.3281 19.165-5.54199Q24.9512 0.244141 32.5439 3.51562Q40.1367 6.78711 48.8281 6.78711ZM48.8281-7.37305Q43.0664-7.37305 38.0127-9.5459Q32.959-11.7188 29.1504-15.5273Q25.3418-19.3359 23.1689-24.3896Q20.9961-29.4434 20.9961-35.2051Q20.9961-40.9668 23.1689-46.0205Q25.3418-51.0742 29.1504-54.8828Q32.959-58.6914 38.0127-60.8643Q43.0664-63.0371 48.8281-63.0371Q54.5898-63.0371 59.6436-60.8643Q64.6973-58.6914 68.5059-54.8828Q72.3145-51.0742 74.4873-46.0205Q76.6602-40.9668 76.6602-35.2051Q76.6602-29.4434 74.4873-24.3896Q72.3145-19.3359 68.5059-15.5273Q64.6973-11.7188 59.6436-9.5459Q54.5898-7.37305 48.8281-7.37305Z"/>
   <path class="multicolor-0:systemOrangeColor hierarchical-1:primary SFSymbolsPreviewFF9500" d="M41.9434-14.209Q43.3105-14.209 44.0918-14.9414Q44.873-15.6738 44.8242-16.8945L44.4824-36.4746Q44.4824-37.5488 45.2637-37.9883Q47.2656-38.916 48.1689-40.2344Q49.0723-41.5527 48.9258-44.4336L48.3887-54.2969Q48.3398-56.0059 46.8262-56.0059Q45.3613-56.0059 45.3613-54.248L45.5078-44.7266Q45.5078-43.6035 44.6289-43.6035Q43.6523-43.6035 43.6523-44.6777L43.5059-54.6387Q43.5059-56.2988 41.9434-56.2988Q40.4297-56.2988 40.4297-54.6387L40.2832-44.6777Q40.2832-43.6035 39.3066-43.6035Q38.4277-43.6035 38.4277-44.7266L38.623-54.248Q38.623-56.0059 37.1094-56.0059Q35.5957-56.0059 35.498-54.2969L35.0098-44.4336Q34.8633-41.5527 35.791-40.2344Q36.7188-38.916 38.623-37.9883Q39.502-37.5 39.502-36.4746L39.1113-16.8945Q39.1113-15.6738 39.8926-14.9414Q40.6738-14.209 41.9434-14.209ZM54.8828-29.1992L54.6387-16.8945Q54.6387-15.6738 55.4199-14.9414Q56.2012-14.209 57.5195-14.209Q58.8867-14.209 59.6191-14.9414Q60.3516-15.6738 60.3516-16.8945L60.3516-54.7852Q60.3516-55.4688 59.9854-55.8838Q59.6191-56.2988 58.9355-56.2988Q58.0078-56.2988 57.1289-55.0781Q55.7129-53.125 54.5166-49.8535Q53.3203-46.582 52.6123-42.8955Q51.9043-39.209 51.9043-35.9863L51.9043-34.7656Q51.9043-33.6914 52.2705-32.9834Q52.6367-32.2754 53.6621-31.6406L54.0039-31.4453Q54.9805-30.8594 54.8828-29.1992Z"/>
  </g>
  <g id="Heavy-S" transform="matrix(1 0 0 1 2588.47 696)">
   <path class="multicolor-0:systemOrangeColor hierarchical-0:secondary SFSymbolsPreviewFF9500" d="M48.1934 6.15234Q56.7871 6.15234 64.2578 2.92969Q71.7285-0.292969 77.4414-6.00586Q83.1543-11.7188 86.377-19.1895Q89.5996-26.6602 89.5996-35.2051Q89.5996-43.75 86.377-51.2451Q83.1543-58.7402 77.4414-64.4531Q71.7285-70.166 64.2334-73.3887Q56.7383-76.6113 48.1934-76.6113Q39.6484-76.6113 32.1777-73.3887Q24.707-70.166 18.9941-64.4531Q13.2812-58.7402 10.0586-51.2451Q6.83594-43.75 6.83594-35.2051Q6.83594-26.6602 10.0586-19.1895Q13.2812-11.7188 18.9941-6.00586Q24.707-0.292969 32.2021 2.92969Q39.6973 6.15234 48.1934 6.15234ZM48.1934-6.39648Q42.2363-6.39648 37.0117-8.64258Q31.7871-10.8887 27.8564-14.8438Q23.9258-18.7988 21.6797-24.0234Q19.4336-29.248 19.4336-35.2051Q19.4336-41.1621 21.6553-46.4111Q23.877-51.6602 27.832-55.5908Q31.7871-59.5215 37.0117-61.7676Q42.2363-64.0137 48.1934-64.0137Q54.1992-64.0137 59.4238-61.7676Q64.6484-59.5215 68.5791-55.5908Q72.5098-51.6602 74.7803-46.4111Q77.0508-41.1621 77.0508-35.2051Q77.0508-29.248 74.8047-24.0234Q72.5586-18.7988 68.6035-14.8438Q64.6484-10.8887 59.4238-8.64258Q54.1992-6.39648 48.1934-6.39648Z"/>
   <path class="multicolor-0:systemOrangeColor hierarchical-1:primary SFSymbolsPreviewFF9500" d="M41.0645-13.2812Q42.4316-13.2812 43.2129-14.0137Q43.9941-14.7461 43.9453-15.9668L43.6035-36.6211Q43.6035-37.7441 44.4336-38.1836Q46.4355-39.1113 47.3633-40.4053Q48.291-41.6992 48.1445-44.5801L47.6074-55.2734Q47.5586-56.9336 46.0449-56.9336Q44.6289-56.9336 44.6289-55.2246L44.7754-44.873Q44.7754-43.75 43.7988-43.75Q42.7246-43.75 42.7246-44.8242L42.5781-55.6152Q42.5781-57.2266 41.0645-57.2266Q39.5508-57.2266 39.5508-55.6152L39.4043-44.8242Q39.4043-43.75 38.3301-43.75Q37.4023-43.75 37.4023-44.873L37.5977-55.2246Q37.5977-56.9336 36.084-56.9336Q34.5703-56.9336 34.4727-55.2734L33.9844-44.5801Q33.8379-41.6992 34.79-40.4053Q35.7422-39.1113 37.6953-38.1836Q38.623-37.6953 38.623-36.6211L38.2324-15.9668Q38.1836-14.7461 38.9648-14.0137Q39.7461-13.2812 41.0645-13.2812ZM54.4922-29.1016L54.1992-15.9668Q54.1992-14.7461 54.9805-14.0137Q55.7617-13.2812 57.0801-13.2812Q58.4961-13.2812 59.2285-13.9893Q59.9609-14.6973 59.9609-15.9668L59.9609-55.6641Q59.9609-56.3965 59.5703-56.8115Q59.1797-57.2266 58.4961-57.2266Q57.5195-57.2266 56.6406-55.9082Q55.127-53.8574 53.9062-50.4883Q52.6855-47.1191 51.9775-43.3105Q51.2695-39.502 51.2695-36.0352L51.2695-34.7656Q51.2695-33.6914 51.6357-32.959Q52.002-32.2266 52.9785-31.5918L53.5645-31.25Q54.5898-30.6152 54.4922-29.1016Z"/>
  </g>
  <g id="Bold-S" transform="matrix(1 0 0 1 2292.42 696)">
   <path class="multicolor-0:systemOrangeColor hierarchical-0:secondary SFSymbolsPreviewFF9500" d="M47.5586 5.46875Q55.957 5.46875 63.3057 2.29492Q70.6543-0.878906 76.2695-6.51855Q81.8848-12.1582 85.083-19.5068Q88.2812-26.8555 88.2812-35.2539Q88.2812-43.6035 85.083-50.9766Q81.8848-58.3496 76.2695-63.9648Q70.6543-69.5801 63.2812-72.7539Q55.9082-75.9277 47.5098-75.9277Q39.1602-75.9277 31.7871-72.7539Q24.4141-69.5801 18.8232-63.9648Q13.2324-58.3496 10.0342-50.9766Q6.83594-43.6035 6.83594-35.2539Q6.83594-26.8555 10.0342-19.5068Q13.2324-12.1582 18.8477-6.51855Q24.4629-0.878906 31.8115 2.29492Q39.1602 5.46875 47.5586 5.46875ZM47.5586-5.32227Q41.3574-5.32227 35.9375-7.6416Q30.5176-9.96094 26.416-14.0625Q22.3145-18.1641 19.9951-23.6084Q17.6758-29.0527 17.6758-35.2539Q17.6758-41.4551 19.9951-46.875Q22.3145-52.2949 26.3916-56.3965Q30.4688-60.498 35.8887-62.8174Q41.3086-65.1367 47.5098-65.1367Q53.7598-65.1367 59.1797-62.8174Q64.5996-60.498 68.7012-56.3965Q72.8027-52.2949 75.1221-46.875Q77.4414-41.4551 77.4414-35.2539Q77.4414-29.0527 75.1221-23.6084Q72.8027-18.1641 68.7256-14.0625Q64.6484-9.96094 59.2041-7.6416Q53.7598-5.32227 47.5586-5.32227Z"/>
   <path class="multicolor-0:systemOrangeColor hierarchical-1:primary SFSymbolsPreviewFF9500" d="M40.0879-12.2559Q41.4551-12.2559 42.2363-12.9883Q43.0176-13.7207 42.9688-14.9902L42.627-36.8164Q42.627-37.9395 43.5059-38.3789Q45.6055-39.3066 46.5576-40.6006Q47.5098-41.8945 47.3633-44.7754L46.7773-56.3477Q46.6797-57.959 45.2637-57.959Q43.7988-57.959 43.7988-56.2988L43.9941-45.0684Q43.9941-43.8965 42.9199-43.8965Q41.748-43.8965 41.748-45.0195L41.6016-56.6895Q41.6016-58.252 40.0879-58.252Q38.623-58.252 38.623-56.6895L38.4277-45.0195Q38.4277-43.8965 37.3047-43.8965Q36.2305-43.8965 36.2305-45.0684L36.4258-56.2988Q36.4258-57.959 34.9609-57.959Q33.4961-57.959 33.3984-56.3477L32.8613-44.7754Q32.7637-41.8945 33.7158-40.6006Q34.668-39.3066 36.7188-38.3789Q37.6465-37.9395 37.6465-36.8164L37.2559-14.9902Q37.207-13.7207 37.9883-12.9883Q38.7695-12.2559 40.0879-12.2559ZM54.1504-29.0039L53.7598-14.9902Q53.7598-13.7207 54.541-12.9883Q55.3223-12.2559 56.6406-12.2559Q58.0566-12.2559 58.8135-12.9639Q59.5703-13.6719 59.5703-14.8926L59.5703-56.6895Q59.5703-57.4707 59.1309-57.8613Q58.6914-58.252 58.0566-58.252Q57.0312-58.252 56.1035-56.8848Q54.541-54.6875 53.2715-51.2207Q52.002-47.7539 51.2939-43.7744Q50.5859-39.7949 50.5859-36.084L50.5859-34.8145Q50.5859-33.7402 50.9766-32.959Q51.3672-32.1777 52.2949-31.5918L53.125-31.0547Q54.1992-30.3711 54.1504-29.0039Z"/>
  </g>
  <g id="Semibold-S" transform="matrix(1 0 0 1 1996.2 696)">
   <path class="multicolor-0:systemOrangeColor hierarchical-0:secondary SFSymbolsPreviewFF9500" d="M47.0703 4.98047Q55.3711 4.98047 62.6465 1.85547Q69.9219-1.26953 75.4639-6.86035Q81.0059-12.4512 84.1553-19.7266Q87.3047-27.002 87.3047-35.2539Q87.3047-43.5059 84.1553-50.7812Q81.0059-58.0566 75.4395-63.623Q69.873-69.1895 62.5977-72.3389Q55.3223-75.4883 47.0215-75.4883Q38.7695-75.4883 31.4941-72.3389Q24.2188-69.1895 18.6768-63.623Q13.1348-58.0566 9.98535-50.7812Q6.83594-43.5059 6.83594-35.2539Q6.83594-27.002 9.98535-19.7266Q13.1348-12.4512 18.7012-6.86035Q24.2676-1.26953 31.543 1.85547Q38.8184 4.98047 47.0703 4.98047ZM47.0703-4.58984Q40.7227-4.58984 35.1562-6.95801Q29.5898-9.32617 25.3906-13.5254Q21.1914-17.7246 18.8232-23.291Q16.4551-28.8574 16.4551-35.2539Q16.4551-41.6016 18.8232-47.168Q21.1914-52.7344 25.3662-56.9336Q29.541-61.1328 35.1074-63.5254Q40.6738-65.918 47.0215-65.918Q53.418-65.918 58.9844-63.5254Q64.5508-61.1328 68.75-56.9336Q72.9492-52.7344 75.3418-47.168Q77.7344-41.6016 77.7344-35.2539Q77.7344-28.8574 75.3662-23.291Q72.998-17.7246 68.7988-13.5254Q64.5996-9.32617 59.0332-6.95801Q53.4668-4.58984 47.0703-4.58984Z"/>
   <path class="multicolor-0:systemOrangeColor hierarchical-1:primary SFSymbolsPreviewFF9500" d="M39.3555-11.4746Q40.7227-11.4746 41.5039-12.207Q42.2852-12.9395 42.2363-14.209L41.8945-36.9141Q41.8945-38.0371 42.7734-38.4766Q44.9219-39.4043 45.8984-40.6982Q46.875-41.9922 46.7285-44.873L46.0938-57.0312Q46.0449-58.6426 44.6289-58.6426Q43.1641-58.6426 43.1641-56.9824L43.3594-45.166Q43.3594-43.9453 42.2363-43.9453Q41.0156-43.9453 41.0156-45.1172L40.8691-57.373Q40.8691-58.8867 39.3555-58.8867Q37.8906-58.8867 37.8906-57.373L37.6953-45.1172Q37.6953-43.9453 36.4746-43.9453Q35.4004-43.9453 35.4004-45.166L35.5957-56.9824Q35.5957-58.6426 34.1309-58.6426Q32.666-58.6426 32.5684-57.0312L32.0312-44.873Q31.9336-41.9922 32.8857-40.6982Q33.8379-39.4043 35.9375-38.4766Q36.9141-38.0371 36.9141-36.9141L36.5234-14.209Q36.4746-12.9395 37.2559-12.207Q38.0371-11.4746 39.3555-11.4746ZM53.8086-28.9062L53.3691-14.209Q53.3691-12.9395 54.1504-12.207Q54.9316-11.4746 56.25-11.4746Q57.666-11.4746 58.4473-12.1582Q59.2285-12.8418 59.2285-14.1113L59.2285-57.3242Q59.2285-58.1055 58.7646-58.4961Q58.3008-58.8867 57.666-58.8867Q56.6406-58.8867 55.6641-57.4707Q54.0527-55.2246 52.7588-51.6846Q51.4648-48.1445 50.7568-44.043Q50.0488-39.9414 50.0488-36.084L50.0488-34.7656Q50.0488-33.6914 50.4639-32.8857Q50.8789-32.0801 51.709-31.4941L52.7344-30.8105Q53.8574-30.127 53.8086-28.9062Z"/>
  </g>
  <g id="Medium-S" transform="matrix(1 0 0 1 1699.83 696)">
   <path class="multicolor-0:systemOrangeColor hierarchical-0:secondary SFSymbolsPreviewFF9500" d="M46.7285 4.63867Q54.9316 4.63867 62.1338 1.51367Q69.3359-1.61133 74.8535-7.12891Q80.3711-12.6465 83.4961-19.8486Q86.6211-27.0508 86.6211-35.2539Q86.6211-43.4082 83.4961-50.6348Q80.3711-57.8613 74.8291-63.3789Q69.2871-68.8965 62.085-71.9971Q54.8828-75.0977 46.6797-75.0977Q38.4766-75.0977 31.2744-71.9971Q24.0723-68.8965 18.5791-63.3789Q13.0859-57.8613 9.96094-50.6348Q6.83594-43.4082 6.83594-35.2539Q6.83594-27.0508 9.96094-19.8486Q13.0859-12.6465 18.6035-7.12891Q24.1211-1.61133 31.3232 1.51367Q38.5254 4.63867 46.7285 4.63867ZM46.7285-4.00391Q40.2344-4.00391 34.5703-6.4209Q28.9062-8.83789 24.6338-13.1348Q20.3613-17.4316 17.9443-23.0957Q15.5273-28.7598 15.5273-35.2539Q15.5273-41.748 17.9199-47.4121Q20.3125-53.0762 24.585-57.373Q28.8574-61.6699 34.5215-64.0869Q40.1855-66.5039 46.6797-66.5039Q53.1738-66.5039 58.8379-64.0869Q64.502-61.6699 68.7988-57.373Q73.0957-53.0762 75.5127-47.4121Q77.9297-41.748 77.9297-35.2539Q77.9297-28.7598 75.5127-23.0957Q73.0957-17.4316 68.8477-13.1348Q64.5996-8.83789 58.9111-6.4209Q53.2227-4.00391 46.7285-4.00391Z"/>
   <path class="multicolor-0:systemOrangeColor hierarchical-1:primary SFSymbolsPreviewFF9500" d="M38.8184-10.9375Q40.2344-10.9375 41.0156-11.6699Q41.7969-12.4023 41.748-13.6719L41.3574-36.9629Q41.3574-38.1348 42.2852-38.5742Q44.4824-39.502 45.459-40.7715Q46.4355-42.041 46.2891-44.9219L45.6543-57.5684Q45.5566-59.1797 44.1895-59.1797Q42.7734-59.1797 42.7734-57.5684L42.9688-45.2148Q42.9688-44.043 41.748-44.043Q40.4785-44.043 40.4785-45.166L40.332-57.9102Q40.332-59.4238 38.8184-59.4238Q37.4023-59.4238 37.4023-57.9102L37.1582-45.166Q37.1582-44.043 35.9375-44.043Q34.7656-44.043 34.7656-45.2148L34.9609-57.5684Q34.9609-59.1797 33.5449-59.1797Q32.1289-59.1797 32.0312-57.5684L31.4453-44.9219Q31.3477-42.041 32.2998-40.7715Q33.252-39.502 35.4004-38.5742Q36.377-38.1348 36.377-36.9629L35.9863-13.6719Q35.9375-12.4023 36.7188-11.6699Q37.5-10.9375 38.8184-10.9375ZM53.6133-28.8086L53.1738-13.6719Q53.1738-12.4023 53.9551-11.6699Q54.7363-10.9375 56.0547-10.9375Q57.4219-10.9375 58.2031-11.6211Q58.9844-12.3047 58.9844-13.5742L58.9844-57.8125Q58.9844-58.6426 58.5205-59.0332Q58.0566-59.4238 57.4707-59.4238Q56.3477-59.4238 55.3711-58.0078Q53.7109-55.6152 52.417-52.0264Q51.123-48.4375 50.3906-44.2871Q49.6582-40.1367 49.6582-36.084L49.6582-34.7656Q49.6582-33.6914 50.0977-32.8857Q50.5371-32.0801 51.3184-31.4941L52.5391-30.7129Q53.6133-29.9805 53.6133-28.8086Z"/>
  </g>
  <g id="Regular-S" transform="matrix(1 0 0 1 1403.58 696)">
   <path class="multicolor-0:systemOrangeColor hierarchical-0:secondary SFSymbolsPreviewFF9500" d="M46.2402 4.15039Q54.3457 4.15039 61.4746 1.07422Q68.6035-2.00195 74.0479-7.4707Q79.4922-12.9395 82.5928-20.0684Q85.6934-27.1973 85.6934-35.2539Q85.6934-43.3105 82.5928-50.4395Q79.4922-57.5684 74.0234-63.0371Q68.5547-68.5059 61.4258-71.582Q54.2969-74.6582 46.1914-74.6582Q38.1348-74.6582 31.0059-71.582Q23.877-68.5059 18.457-63.0371Q13.0371-57.5684 9.93652-50.4395Q6.83594-43.3105 6.83594-35.2539Q6.83594-27.1973 9.93652-20.0684Q13.0371-12.9395 18.4814-7.4707Q23.9258-2.00195 31.0547 1.07422Q38.1836 4.15039 46.2402 4.15039ZM46.2402-3.27148Q39.5996-3.27148 33.8135-5.7373Q28.0273-8.20312 23.6572-12.5977Q19.2871-16.9922 16.8213-22.8027Q14.3555-28.6133 14.3555-35.2539Q14.3555-41.8945 16.7969-47.7051Q19.2383-53.5156 23.6084-57.9102Q27.9785-62.3047 33.7646-64.7705Q39.5508-67.2363 46.1914-67.2363Q52.8809-67.2363 58.667-64.7705Q64.4531-62.3047 68.8477-57.9102Q73.2422-53.5156 75.7324-47.7051Q78.2227-41.8945 78.2227-35.2539Q78.2227-28.6133 75.7568-22.8027Q73.291-16.9922 68.9209-12.5977Q64.5508-8.20312 58.7402-5.7373Q52.9297-3.27148 46.2402-3.27148Z"/>
   <path class="multicolor-0:systemOrangeColor hierarchical-1:primary SFSymbolsPreviewFF9500" d="M38.1348-10.2051Q39.5508-10.2051 40.332-10.9375Q41.1133-11.6699 41.0645-12.9883L40.6738-37.1094Q40.6738-38.2812 41.6504-38.7207Q43.8477-39.6484 44.8486-40.918Q45.8496-42.1875 45.7031-45.0684L45.0684-58.3008Q44.9707-59.8633 43.6035-59.8633Q42.1875-59.8633 42.1875-58.3008L42.3828-45.3613Q42.3828-44.1406 41.1133-44.1406Q39.7949-44.1406 39.7949-45.3125L39.6484-58.6426Q39.6484-60.1074 38.1348-60.1074Q36.7188-60.1074 36.7188-58.6426L36.4746-45.3125Q36.4746-44.1406 35.2051-44.1406Q33.9844-44.1406 33.9844-45.3613L34.1797-58.3008Q34.1797-59.8633 32.7637-59.8633Q31.3477-59.8633 31.25-58.3008L30.6641-45.0684Q30.5664-42.1875 31.543-40.918Q32.5195-39.6484 34.7168-38.7207Q35.6934-38.2812 35.6934-37.1094L35.3027-12.9883Q35.2539-11.6699 36.0352-10.9375Q36.8164-10.2051 38.1348-10.2051ZM53.3203-28.7598L52.832-12.9883Q52.832-11.6699 53.6133-10.9375Q54.3945-10.2051 55.7129-10.2051Q57.1289-10.2051 57.9102-10.8887Q58.6914-11.5723 58.6914-12.8418L58.6914-58.4961Q58.6914-59.375 58.2031-59.7412Q57.7148-60.1074 57.1289-60.1074Q56.0059-60.1074 54.9805-58.6426Q53.2715-56.2012 51.9531-52.5391Q50.6348-48.877 49.9023-44.6045Q49.1699-40.332 49.1699-36.1328L49.1699-34.7656Q49.1699-33.6914 49.6094-32.8613Q50.0488-32.0312 50.8301-31.4453L52.1973-30.5664Q53.3203-29.7852 53.3203-28.7598Z"/>
  </g>
  <g id="Light-S" transform="matrix(1 0 0 1 1107.6 696)">
   <path class="multicolor-0:systemOrangeColor hierarchical-0:secondary SFSymbolsPreviewFF9500" d="M45.5078 3.41797Q53.4668 3.41797 60.4736 0.415039Q67.4805-2.58789 72.8271-7.95898Q78.1738-13.3301 81.2012-20.3125Q84.2285-27.2949 84.2285-35.2539Q84.2285-43.2129 81.2012-50.1953Q78.1738-57.1777 72.8027-62.5488Q67.4316-67.9199 60.4492-70.9229Q53.4668-73.9258 45.459-73.9258Q37.5488-73.9258 30.542-70.9229Q23.5352-67.9199 18.2129-62.5488Q12.8906-57.1777 9.86328-50.1953Q6.83594-43.2129 6.83594-35.2539Q6.83594-27.2949 9.86328-20.3125Q12.8906-13.3301 18.2373-7.95898Q23.584-2.58789 30.5908 0.415039Q37.5977 3.41797 45.5078 3.41797ZM45.5078-2.29492Q38.6719-2.29492 32.6904-4.83398Q26.709-7.37305 22.1924-11.9141Q17.6758-16.4551 15.1367-22.4365Q12.5977-28.418 12.5977-35.2539Q12.5977-42.0898 15.1367-48.0713Q17.6758-54.0527 22.1924-58.5938Q26.709-63.1348 32.666-65.6738Q38.623-68.2129 45.459-68.2129Q52.3438-68.2129 58.3252-65.6738Q64.3066-63.1348 68.8232-58.5938Q73.3398-54.0527 75.9277-48.0713Q78.5156-42.0898 78.5156-35.2539Q78.5156-28.418 75.9521-22.4365Q73.3887-16.4551 68.8721-11.9141Q64.3555-7.37305 58.374-4.83398Q52.3926-2.29492 45.5078-2.29492Z"/>
   <path class="multicolor-0:systemOrangeColor hierarchical-1:primary SFSymbolsPreviewFF9500" d="M37.4023-10.2051Q38.7695-10.2051 39.5508-10.9131Q40.332-11.6211 40.2832-12.9395L39.8926-37.2559Q39.8926-38.4277 40.8691-38.8672Q43.0176-39.8438 43.9697-41.1377Q44.9219-42.4316 44.7754-45.3125L44.1406-58.5449Q44.043-60.0098 42.7246-60.0098Q41.3086-60.0098 41.3086-58.4961L41.5039-45.6055Q41.5039-44.3359 40.2832-44.3359Q39.0137-44.3359 39.0137-45.5566L38.8672-58.8867Q38.8672-60.2539 37.4023-60.2539Q36.0352-60.2539 36.0352-58.8867L35.791-45.5566Q35.791-44.3359 34.5703-44.3359Q33.3496-44.3359 33.3496-45.6055L33.5449-58.4961Q33.5449-60.0098 32.1777-60.0098Q30.8105-60.0098 30.7129-58.5449L30.127-45.3125Q30.0293-42.4316 30.9326-41.1377Q31.8359-39.8438 34.0332-38.8672Q34.9609-38.4277 34.9609-37.2559L34.5703-12.9395Q34.5215-11.6211 35.3271-10.9131Q36.1328-10.2051 37.4023-10.2051ZM52.3438-28.3691L51.7578-13.0859Q51.7578-11.6699 52.5635-10.9375Q53.3691-10.2051 54.6387-10.2051Q56.0059-10.2051 56.8115-10.8887Q57.6172-11.5723 57.6172-12.8418L57.6172-58.7402Q57.6172-59.5703 57.1533-59.9121Q56.6895-60.2539 56.1523-60.2539Q55.0781-60.2539 54.1504-58.9355Q52.3926-56.4453 51.0986-52.8076Q49.8047-49.1699 49.0967-44.873Q48.3887-40.5762 48.3887-36.1816L48.3887-34.7168Q48.3887-33.5449 48.8037-32.7148Q49.2188-31.8848 50.0488-31.2988L51.2207-30.5176Q52.3438-29.6875 52.3438-28.3691Z"/>
  </g>
  <g id="Thin-S" transform="matrix(1 0 0 1 811.867 696)">
   <path class="multicolor-0:systemOrangeColor hierarchical-0:secondary SFSymbolsPreviewFF9500" d="M44.5312 2.44141Q52.3438 2.44141 59.1553-0.488281Q65.9668-3.41797 71.1914-8.64258Q76.416-13.8672 79.3457-20.6787Q82.2754-27.4902 82.2754-35.2539Q82.2754-43.0176 79.3457-49.8291Q76.416-56.6406 71.1914-61.8652Q65.9668-67.0898 59.1553-70.0195Q52.3438-72.9492 44.5312-72.9492Q36.7676-72.9492 29.9316-70.0195Q23.0957-67.0898 17.9199-61.8652Q12.7441-56.6406 9.79004-49.8291Q6.83594-43.0176 6.83594-35.2539Q6.83594-27.4902 9.79004-20.6787Q12.7441-13.8672 17.9199-8.64258Q23.0957-3.41797 29.9316-0.488281Q36.7676 2.44141 44.5312 2.44141ZM44.5312-0.927734Q37.4512-0.927734 31.2256-3.58887Q25-6.25 20.2881-10.9619Q15.5762-15.6738 12.915-21.9238Q10.2539-28.1738 10.2539-35.2539Q10.2539-42.334 12.915-48.584Q15.5762-54.834 20.2881-59.5459Q25-64.2578 31.2256-66.9189Q37.4512-69.5801 44.5312-69.5801Q51.6602-69.5801 57.8857-66.9189Q64.1113-64.2578 68.8232-59.5459Q73.5352-54.834 76.1963-48.584Q78.8574-42.334 78.8574-35.2539Q78.8574-28.1738 76.1963-21.9238Q73.5352-15.6738 68.8232-10.9619Q64.1113-6.25 57.8857-3.58887Q51.6602-0.927734 44.5312-0.927734Z"/>
   <path class="multicolor-0:systemOrangeColor hierarchical-1:primary SFSymbolsPreviewFF9500" d="M36.4746-10.1074Q37.7441-10.1074 38.5498-10.8154Q39.3555-11.5234 39.3066-12.793L38.8672-37.4023Q38.8672-38.623 39.8438-39.0625Q41.9922-39.9902 42.8467-41.3574Q43.7012-42.7246 43.5547-45.5566L42.9199-58.7891Q42.8223-60.1562 41.5527-60.1562Q40.2344-60.1562 40.2344-58.7402L40.332-45.8496Q40.332-44.5801 39.209-44.5801Q37.9883-44.5801 37.9883-45.8008L37.8418-59.1309Q37.8418-60.4492 36.4746-60.4492Q35.1074-60.4492 35.1074-59.1309L34.9609-45.8008Q34.9609-44.5801 33.7402-44.5801Q32.5684-44.5801 32.5684-45.8496L32.7148-58.7402Q32.7148-60.1562 31.3965-60.1562Q30.127-60.1562 30.0293-58.7891L29.4434-45.5566Q29.3457-42.7246 30.1758-41.3574Q31.0059-39.9902 33.1055-39.0625Q34.0332-38.623 34.0332-37.4023L33.6426-12.793Q33.5938-11.5234 34.3994-10.8154Q35.2051-10.1074 36.4746-10.1074ZM51.0254-27.832L50.4395-13.1836Q50.3418-11.6211 51.1963-10.8643Q52.0508-10.1074 53.3203-10.1074Q54.5898-10.1074 55.3955-10.8154Q56.2012-11.5234 56.2012-12.793L56.2012-58.9844Q56.2012-59.7656 55.8105-60.1074Q55.4199-60.4492 54.8828-60.4492Q53.9062-60.4492 53.0762-59.2285Q51.3184-56.7383 50.0244-53.125Q48.7305-49.5117 48.0469-45.166Q47.3633-40.8203 47.3633-36.1816L47.3633-34.5215Q47.3633-33.252 47.7783-32.4463Q48.1934-31.6406 49.0234-31.0547L49.9512-30.3223Q51.0742-29.4434 51.0254-27.832Z"/>
  </g>
  <g id="Ultralight-S" transform="matrix(1 0 0 1 515.644 696)">
   <path class="multicolor-0:systemOrangeColor hierarchical-0:secondary SFSymbolsPreviewFF9500" d="M44.043 1.95312Q51.7578 1.95312 58.4717-0.927734Q65.1855-3.80859 70.3369-8.95996Q75.4883-14.1113 78.3936-20.8252Q81.2988-27.5391 81.2988-35.2539Q81.2988-42.9688 78.3936-49.6826Q75.4883-56.3965 70.3369-61.5479Q65.1855-66.6992 58.4717-69.5801Q51.7578-72.4609 44.043-72.4609Q36.377-72.4609 29.6387-69.5801Q22.9004-66.6992 17.7734-61.5479Q12.6465-56.3965 9.74121-49.6826Q6.83594-42.9688 6.83594-35.2539Q6.83594-27.5391 9.74121-20.8252Q12.6465-14.1113 17.7734-8.95996Q22.9004-3.80859 29.6387-0.927734Q36.377 1.95312 44.043 1.95312ZM44.043-0.292969Q36.8164-0.292969 30.4688-3.00293Q24.1211-5.71289 19.3115-10.5225Q14.502-15.332 11.7676-21.6797Q9.0332-28.0273 9.0332-35.2539Q9.0332-42.4805 11.7676-48.8281Q14.502-55.1758 19.3115-59.9854Q24.1211-64.7949 30.4688-67.5049Q36.8164-70.2148 44.043-70.2148Q51.2695-70.2148 57.6416-67.5049Q64.0137-64.7949 68.7988-59.9854Q73.584-55.1758 76.3184-48.8281Q79.0527-42.4805 79.0527-35.2539Q79.0527-28.0273 76.3428-21.6797Q73.6328-15.332 68.8232-10.5225Q64.0137-5.71289 57.666-3.00293Q51.3184-0.292969 44.043-0.292969Z"/>
   <path class="multicolor-0:systemOrangeColor hierarchical-1:primary SFSymbolsPreviewFF9500" d="M35.9375-10.1074Q37.1582-10.1074 37.9883-10.791Q38.8184-11.4746 38.7695-12.7441L38.3301-37.5488Q38.3301-38.7207 39.3066-39.1602Q41.4062-40.1367 42.2119-41.5283Q43.0176-42.9199 42.8711-45.7031L42.2363-58.9844Q42.1387-60.3027 40.918-60.3027Q39.5996-60.3027 39.5996-58.8867L39.7461-45.9961Q39.7461-44.7266 38.623-44.7266Q37.4512-44.7266 37.4512-45.9473L37.2559-59.2773Q37.2559-60.5469 35.9375-60.5469Q34.6191-60.5469 34.6191-59.2773L34.4727-45.9473Q34.4727-44.7266 33.252-44.7266Q32.1289-44.7266 32.1289-45.9961L32.2266-58.8867Q32.2266-60.3027 30.957-60.3027Q29.7363-60.3027 29.6387-58.9844L29.0527-45.7031Q28.9551-42.9199 29.7363-41.5283Q30.5176-40.1367 32.6172-39.1602Q33.5449-38.7207 33.5449-37.5488L33.1055-12.7441Q33.0566-11.4746 33.8867-10.791Q34.7168-10.1074 35.9375-10.1074ZM50.3418-27.5879L49.6582-13.2812Q49.6094-11.6211 50.4639-10.8643Q51.3184-10.1074 52.5391-10.1074Q53.8086-10.1074 54.6387-10.8154Q55.4688-11.5234 55.4688-12.793L55.4688-59.1797Q55.4688-59.9121 55.0781-60.2295Q54.6875-60.5469 54.1992-60.5469Q53.2715-60.5469 52.4902-59.4238Q50.6836-56.9336 49.4141-53.3203Q48.1445-49.707 47.4609-45.3369Q46.7773-40.9668 46.7773-36.2305L46.7773-34.5215Q46.7773-33.1543 47.1924-32.373Q47.6074-31.5918 48.4375-30.957L49.2676-30.3223Q50.3906-29.3945 50.3418-27.5879Z"/>
  </g>
 </g>
</svg>
